<svg width="776" height="426" viewBox="0 0 776 426" fill="none" xmlns="http://www.w3.org/2000/svg">
<g clip-path="url(#clip0_23_54)">
<path d="M642.649 409.98V419.967L529.53 421.043L528.324 421.066L485.332 421.473L484.304 421.488L471.236 421.603H470.849L391.193 422.364L260.435 423.616H260.324L227.078 423.939L226.72 423.947L78.9937 425.345V413.821L113.729 392.31L183.422 391.711L184.912 391.703L185.403 391.695L186.892 391.672L220.354 391.388L221.851 391.38L222.327 391.373L223.816 391.365L234.546 391.273L234.829 391.265L261.299 391.034H261.515L468.065 389.237L473.12 389.198H473.627L477.484 389.16L505.517 388.922L507.007 388.899L508.384 388.883H509.099L517.818 388.814L519.546 388.791L521.861 388.776L529.121 388.707L540.64 388.607L542.129 388.591L544.72 388.576H545.204L600.832 388.084L642.649 409.98Z" fill="#65617D"/>
<path opacity="0.2" d="M642.649 409.98V419.967L529.53 421.043L528.324 421.066L485.332 421.473L484.304 421.488L471.236 421.603H470.849L391.193 422.364L260.435 423.616H260.324L227.078 423.939L226.72 423.947L78.9937 425.345V413.821L113.729 392.31L183.422 391.711L184.912 391.703L185.403 391.695L186.892 391.672L220.354 391.388L221.851 391.38L222.327 391.373L223.816 391.365L234.546 391.273L234.829 391.265L261.299 391.034H261.515L468.065 389.237L473.12 389.198H473.627L477.484 389.16L505.517 388.922L507.007 388.899L508.384 388.883H509.099L517.818 388.814L519.546 388.791L521.861 388.776L529.121 388.707L540.64 388.607L542.129 388.591L544.72 388.576H545.204L600.832 388.084L642.649 409.98Z" fill="black"/>
<path d="M220.473 371.575V390.389C220.474 391.28 220.229 392.153 219.768 392.907C219.307 393.66 218.648 394.263 217.867 394.645C217.286 394.936 216.651 395.093 216.006 395.106L190.02 395.675C189.326 395.692 188.637 395.542 188.009 395.237C187.215 394.861 186.543 394.258 186.071 393.5C185.6 392.741 185.35 391.859 185.351 390.958V371.575H220.473Z" fill="#3F3D56"/>
<path opacity="0.1" d="M220.473 371.575V390.389C220.474 391.28 220.229 392.153 219.768 392.907C219.307 393.66 218.648 394.263 217.867 394.645C217.286 394.936 216.651 395.093 216.006 395.106L190.02 395.675C189.326 395.692 188.637 395.542 188.009 395.237C187.215 394.861 186.543 394.258 186.071 393.5C185.6 392.741 185.35 391.859 185.351 390.958V371.575H220.473Z" fill="black"/>
<path d="M221.962 371.575V390.389C221.963 391.28 221.718 392.153 221.257 392.907C220.795 393.66 220.136 394.263 219.356 394.645C218.775 394.936 218.14 395.093 217.495 395.106L191.508 395.675C190.814 395.692 190.126 395.542 189.498 395.237C188.704 394.861 188.032 394.258 187.56 393.5C187.089 392.741 186.839 391.859 186.84 390.958V371.575H221.962Z" fill="#3F3D56"/>
<path d="M542.129 371.567H507.006V395.767H542.129V371.567Z" fill="#3F3D56"/>
<path opacity="0.1" d="M542.129 371.567H507.006V395.767H542.129V371.567Z" fill="black"/>
<path d="M540.64 371.567H505.518V395.767H540.64V371.567Z" fill="#3F3D56"/>
<path opacity="0.1" d="M221.955 371.567V375.385L186.833 376.353V371.567H221.955Z" fill="black"/>
<path d="M283.95 239.972V369.193C283.941 369.982 283.638 370.737 283.104 371.302C282.571 371.867 281.847 372.198 281.083 372.228L138.382 376.146H138.345C137.568 376.136 136.825 375.813 136.276 375.246C135.726 374.679 135.413 373.913 135.404 373.111V239.972C135.413 239.171 135.726 238.405 136.276 237.838C136.825 237.271 137.568 236.948 138.345 236.938H281.008C281.786 236.948 282.528 237.271 283.078 237.838C283.627 238.405 283.94 239.171 283.95 239.972V239.972Z" fill="#65617D"/>
<path opacity="0.1" d="M138.382 236.938V376.146H138.345C137.568 376.136 136.825 375.813 136.276 375.246C135.726 374.679 135.413 373.913 135.404 373.111V239.972C135.413 239.171 135.726 238.405 136.276 237.838C136.825 237.271 137.568 236.948 138.345 236.938H138.382Z" fill="black"/>
<path d="M144.89 245.189H277.054V359.083L144.89 362.156V245.189Z" fill="url(#paint0_linear_23_54)"/>
<path opacity="0.1" d="M540.64 371.567V376.491L505.518 375.523V371.567H540.64Z" fill="black"/>
<path d="M586.998 239.972V373.111C586.988 373.919 586.67 374.691 586.113 375.259C585.555 375.827 584.803 376.146 584.02 376.146V376.146L441.289 372.228C440.525 372.198 439.801 371.867 439.268 371.302C438.734 370.737 438.431 369.982 438.422 369.193V239.972C438.432 239.171 438.745 238.405 439.294 237.838C439.844 237.271 440.586 236.948 441.363 236.938H584.027C584.809 236.94 585.559 237.259 586.115 237.827C586.671 238.395 586.988 239.165 586.998 239.972V239.972Z" fill="#65617D"/>
<path opacity="0.1" d="M586.998 239.972V373.111C586.988 373.919 586.67 374.691 586.112 375.259C585.555 375.827 584.803 376.146 584.02 376.146V376.146V236.938C584.803 236.938 585.555 237.256 586.112 237.824C586.67 238.392 586.988 239.164 586.998 239.972Z" fill="black"/>
<path d="M577.497 245.189H445.332V359.083L577.497 362.156V245.189Z" fill="url(#paint1_linear_23_54)"/>
<path d="M434.729 239.972V369.193C434.72 369.982 434.417 370.737 433.884 371.302C433.35 371.867 432.626 372.198 431.862 372.228L289.161 376.146C288.378 376.146 287.626 375.827 287.069 375.259C286.511 374.691 286.193 373.919 286.183 373.111V239.972C286.193 239.171 286.506 238.405 287.055 237.838C287.605 237.271 288.347 236.948 289.124 236.938H431.788C432.565 236.948 433.307 237.271 433.857 237.838C434.406 238.405 434.719 239.171 434.729 239.972V239.972Z" fill="#65617D"/>
<path d="M295.669 245.189H427.834V359.083L295.669 362.156V245.189Z" fill="url(#paint2_linear_23_54)"/>
<path opacity="0.1" d="M642.649 409.98V419.967L529.53 421.043L528.324 421.066L485.332 421.473L484.304 421.488L471.236 421.603H470.849L391.193 422.364L260.435 423.616H260.324L227.078 423.939L226.72 423.947L78.9937 425.345V413.821L229.781 412.799H230.138L260.659 412.584H260.8L471.579 411.147H471.795L471.921 411.14H472.271L475.838 411.117H476.925L532.39 410.733L535.666 410.717L536.396 410.71L642.649 409.98Z" fill="black"/>
<path d="M362.809 268.49C383.917 268.49 401.029 250.835 401.029 229.055C401.029 207.276 383.917 189.621 362.809 189.621C341.701 189.621 324.589 207.276 324.589 229.055C324.589 250.835 341.701 268.49 362.809 268.49Z" fill="#FBBEBE"/>
<path d="M401.037 289.755C401.037 289.755 326.95 298.974 334.023 289.755C336.585 286.421 337.292 276.541 337.151 265.286C337.106 261.868 336.987 258.326 336.816 254.8C335.997 237.898 334.023 221.381 334.023 221.381C334.023 221.381 398.803 189.882 391.357 214.85C388.379 224.938 389.354 239.104 391.617 252.403C392.28 256.282 393.047 260.085 393.851 263.696C395.814 272.503 398.212 281.201 401.037 289.755V289.755Z" fill="#FBBEBE"/>
<path d="M376.86 286.629C385.43 284.992 394.506 282.019 402.57 285.445C404.692 286.344 406.643 287.658 408.817 288.411C410.992 289.164 413.374 289.348 415.638 289.878C423.59 291.737 430.038 297.983 434.178 305.243C438.318 312.503 440.463 320.716 442.562 328.844L447.7 348.688C452.167 365.936 456.635 383.329 457.67 401.16C395.472 404.833 333.132 405.2 270.897 402.259C274.948 394.315 279.087 385.887 278.745 376.906C278.402 367.925 273.391 359.067 275.201 350.217C276.355 344.578 280.093 339.93 282.379 334.683C288.894 319.687 283.823 299.505 295.275 288.088C300.427 282.956 307.933 281.013 315.103 281.258C324.247 281.573 333.606 284.516 342.653 285.952C354.239 287.766 365.184 288.841 376.86 286.629Z" fill="#292623"/>
<path opacity="0.1" d="M474.326 372.036L474.252 373.134V373.211L474.125 374.978L473.135 389.198L471.936 406.33L471.594 411.155L470.849 421.481V421.611L391.178 422.379L260.435 423.839V424.484H260.331V423.839V423.624L260.666 412.592L261.306 391.035L261.857 372.758L261.91 370.937C261.942 369.838 262.192 368.757 262.642 367.761C263.093 366.765 263.736 365.874 264.532 365.143C265.328 364.412 266.26 363.855 267.271 363.508C268.282 363.161 269.351 363.03 270.413 363.124C273.927 363.431 278.492 363.808 283.949 364.207L286.183 364.376C317.702 366.635 375.951 369.554 434.729 365.913C435.965 365.843 437.209 365.767 438.452 365.674C447.566 365.083 456.672 364.322 465.689 363.37C466.829 363.246 467.981 363.383 469.065 363.768C470.148 364.154 471.136 364.781 471.96 365.603C472.783 366.426 473.422 367.424 473.831 368.529C474.24 369.634 474.409 370.818 474.326 371.997V372.036Z" fill="black"/>
<path d="M260.413 424.484V423.839L391.178 422.372L470.849 421.603H471.073V421.473L471.817 411.147L472.137 406.538L473.358 389.168L474.319 375.416V375.078C474.363 374.444 474.336 373.807 474.237 373.18C474.241 373.155 474.241 373.129 474.237 373.103C474.033 371.807 473.521 370.582 472.748 369.539C471.928 368.454 470.854 367.603 469.627 367.065C468.399 366.527 467.06 366.321 465.734 366.466C456.717 367.418 447.611 368.179 438.497 368.77C437.253 368.863 436.01 368.939 434.774 369.009C375.996 372.612 317.747 369.692 286.228 367.472L283.994 367.303C278.536 366.904 273.972 366.535 270.458 366.22C268.524 366.051 266.599 366.628 265.053 367.838C263.508 369.048 262.452 370.807 262.088 372.773C262.013 373.189 261.968 373.61 261.954 374.033L261.448 391.058L260.756 412.622L260.428 423.655V423.87V424.515L260.413 424.484Z" fill="#3F3D56"/>
<path opacity="0.1" d="M474.55 377.421L473.634 389.198L472.272 406.753L471.929 411.147L471.184 420.989L471.14 421.48V421.611L471.028 422.748L471.11 421.611H470.894L391.223 422.379L260.436 423.839V423.624L260.8 412.592L261.545 391.034L262.022 376.706C262.045 375.891 262.266 375.095 262.664 374.391C263.062 373.686 263.624 373.096 264.3 372.673C265.143 372.14 266.129 371.898 267.115 371.982C268.678 372.112 270.599 372.266 272.84 372.435C276.481 372.712 280.971 373.034 286.198 373.372C295.878 374.002 308.022 374.678 321.939 375.231C360.657 376.768 412.928 377.283 462.577 372.796C464.811 372.596 467.119 372.374 469.375 372.151C470.268 372.059 471.168 372.235 471.966 372.658C472.192 372.774 472.407 372.913 472.607 373.073C473.255 373.557 473.768 374.209 474.096 374.963C474.172 375.112 474.234 375.269 474.282 375.431C474.506 376.068 474.597 376.746 474.55 377.421V377.421Z" fill="black"/>
<path opacity="0.1" d="M221.962 387.938V390.389C221.963 391.28 221.718 392.153 221.257 392.907C220.795 393.66 220.136 394.263 219.356 394.645L189.498 395.237C188.704 394.861 188.032 394.258 187.56 393.5C187.089 392.741 186.839 391.859 186.84 390.958V388.653L221.962 387.938Z" fill="black"/>
<path d="M222.327 396.09L183.422 396.858V390.197L222.327 389.429V396.09Z" fill="#3F3D56"/>
<path opacity="0.1" d="M222.327 396.09L183.422 396.858V390.197L222.327 389.429V396.09Z" fill="black"/>
<path d="M223.816 396.09L184.912 396.858V390.197L223.816 389.429V396.09Z" fill="#3F3D56"/>
<path opacity="0.1" d="M505.741 389.475V391.926C505.74 392.817 505.985 393.69 506.446 394.443C506.908 395.197 507.567 395.799 508.347 396.182L538.205 396.773C538.999 396.398 539.671 395.795 540.143 395.036C540.614 394.278 540.864 393.395 540.863 392.494V390.189L505.741 389.475Z" fill="black"/>
<path opacity="0.1" d="M505.368 397.626L544.273 398.394V391.734L505.368 390.965V397.626Z" fill="black"/>
<path d="M503.879 397.626L542.784 398.394V391.734L503.879 390.965V397.626Z" fill="#3F3D56"/>
<path d="M338.632 241.14C338.692 246.518 336.279 251.588 334.232 256.559C326.777 274.665 323.548 294.326 324.805 313.955C325.349 322.406 326.726 330.857 325.349 339.231C323.971 347.605 319.072 355.956 311.202 358.361C324.254 366.389 341.923 365.544 354.209 356.317C360.754 351.4 365.631 344.54 370.404 337.794C369.837 349.911 366.437 361.707 360.494 372.174C371.237 371.192 381.66 367.894 391.089 362.491C400.518 357.089 408.742 349.704 415.228 340.814C418.438 336.35 421.23 331.449 422.466 326.04C424.767 316.053 421.557 305.674 419.108 295.694C417.061 287.351 415.526 278.884 414.514 270.341C414.193 267.606 413.933 264.795 414.588 262.121C415.333 258.994 417.321 256.352 418.788 253.501C422.957 245.404 423.054 235.601 420.917 226.705C418.78 217.808 414.595 209.603 410.448 201.498C407.127 194.999 403.523 188.2 397.448 184.381C393.65 182 389.257 181.009 384.879 180.048L365.989 175.877C361.856 174.963 357.605 174.048 353.427 174.717C346.376 175.854 341.41 181.109 337.046 186.502C333.629 190.696 325.274 198.571 324.686 204.064C324.15 209.127 328.484 217.608 329.221 222.948C330.189 229.862 330.874 227.557 334.656 231.798C337.046 234.426 338.588 237.46 338.632 241.14Z" fill="#3F3D56"/>
<path d="M223.571 256.282H149.409C149.311 256.282 149.216 256.242 149.146 256.17C149.076 256.098 149.037 256 149.037 255.898C149.037 255.796 149.076 255.699 149.146 255.627C149.216 255.555 149.311 255.514 149.409 255.514H223.571C223.669 255.514 223.764 255.555 223.834 255.627C223.904 255.699 223.943 255.796 223.943 255.898C223.943 256 223.904 256.098 223.834 256.17C223.764 256.242 223.669 256.282 223.571 256.282Z" fill="#F2F2F2"/>
<path d="M223.571 263.197H149.409C149.311 263.197 149.216 263.156 149.146 263.084C149.076 263.012 149.037 262.914 149.037 262.813C149.037 262.711 149.076 262.613 149.146 262.541C149.216 262.469 149.311 262.428 149.409 262.428H223.571C223.669 262.428 223.764 262.469 223.834 262.541C223.904 262.613 223.943 262.711 223.943 262.813C223.943 262.914 223.904 263.012 223.834 263.084C223.764 263.156 223.669 263.197 223.571 263.197Z" fill="#F2F2F2"/>
<path d="M223.571 270.111H149.409C149.311 270.111 149.216 270.071 149.146 269.999C149.076 269.926 149.037 269.829 149.037 269.727C149.037 269.625 149.076 269.527 149.146 269.455C149.216 269.383 149.311 269.343 149.409 269.343H223.571C223.669 269.343 223.764 269.383 223.834 269.455C223.904 269.527 223.943 269.625 223.943 269.727C223.943 269.829 223.904 269.926 223.834 269.999C223.764 270.071 223.669 270.111 223.571 270.111Z" fill="#F2F2F2"/>
</g>
<defs>
<linearGradient id="paint0_linear_23_54" x1="170.5" y1="262.5" x2="288" y2="390.5" gradientUnits="userSpaceOnUse">
<stop stop-color="#CD00EE"/>
<stop offset="1" stop-color="#FE8900"/>
</linearGradient>
<linearGradient id="paint1_linear_23_54" x1="445" y1="155" x2="577" y2="381.5" gradientUnits="userSpaceOnUse">
<stop stop-color="#CD00EE"/>
<stop offset="1" stop-color="#FE8900"/>
</linearGradient>
<linearGradient id="paint2_linear_23_54" x1="296" y1="239" x2="413.5" y2="374" gradientUnits="userSpaceOnUse">
<stop stop-color="#CD00EE"/>
<stop offset="1" stop-color="#FE8900"/>
</linearGradient>
<clipPath id="clip0_23_54">
<rect width="775.357" height="425.744" fill="white"/>
</clipPath>
</defs>
</svg>
