<svg width="402" height="439" viewBox="0 0 402 439" fill="none" xmlns="http://www.w3.org/2000/svg">
<path d="M205.627 385.743V409.2H212.072L210.824 384.019L205.627 385.743Z" fill="#AAABB0"/>
<path d="M108.826 381.01V404.467H115.277L114.029 379.286L108.826 381.01Z" fill="#AAABB0"/>
<path d="M221.429 346.577C221.429 344.198 219.567 342.27 217.271 342.27C214.975 342.27 213.113 344.198 213.113 346.577V379.719C213.113 382.097 214.975 384.025 217.271 384.025C219.567 384.025 221.429 382.097 221.429 379.719V346.577Z" fill="#AAABB0"/>
<path d="M114.753 337.318C114.753 334.939 112.891 333.011 110.595 333.011C108.299 333.011 106.437 334.939 106.437 337.318V379.712C106.437 382.091 108.299 384.019 110.595 384.019C112.891 384.019 114.753 382.091 114.753 379.712V337.318Z" fill="#AAABB0"/>
<path d="M232.041 92.3966C232.041 92.3966 240.356 88.7357 241.604 92.3966C242.852 96.0575 243.475 127.695 243.475 127.695H235.571L232.041 92.3966Z" fill="#AAABB0"/>
<path d="M140.96 92.3966C140.96 92.3966 132.638 88.7357 131.391 92.3966C130.143 96.0575 129.519 127.695 129.519 127.695H137.423L140.96 92.3966Z" fill="#AAABB0"/>
<path d="M142.202 60.9723L140.954 87.2316H146.569V60.3267L142.202 60.9723Z" fill="#AAABB0"/>
<path d="M137.423 127.695L139.089 89.8139C139.089 89.8139 138.465 81.4202 158.215 84.0029C177.966 86.5855 235.783 91.7509 235.783 91.7509V127.695H137.423Z" fill="#33323D"/>
<path d="M216.445 327.206L213.326 385.097C213.326 385.097 167.573 411.356 112.052 386.388L117.042 325.482L216.445 327.206Z" fill="#33323D"/>
<path d="M172.982 99.2796L174.017 136.728H238.485L234.742 87.2314L172.982 99.2796Z" fill="#444053"/>
<path d="M179.532 302.452H118.808V382.082H179.532V302.452Z" fill="#464A5F"/>
<path d="M157.18 334.954C157.18 334.954 165.914 327.852 167.367 330.002C168.821 332.152 162.177 341.411 159.469 340.333C156.762 339.254 157.18 334.954 157.18 334.954Z" fill="#FFB9B9"/>
<path d="M399.578 125.539H0.964844V332.152H399.578V125.539Z" fill="#342009"/>
<path d="M137.629 59.4678C137.629 59.4678 134.51 29.3346 137.629 25.6801C140.748 22.0256 193.151 -12.6338 241.604 28.0432C241.604 28.0432 246.177 28.2628 245.347 39.0196C244.858 45.8277 244.891 52.6652 245.447 59.4678C245.447 59.4678 141.166 67.2159 137.629 59.4678Z" fill="#33323D"/>
<path opacity="0.1" d="M137.629 59.4678C137.629 59.4678 134.51 29.3346 137.629 25.6801C140.748 22.0256 193.151 -12.6338 241.604 28.0432C241.604 28.0432 246.177 28.2628 245.347 39.0196C244.858 45.8277 244.891 52.6652 245.447 59.4678C245.447 59.4678 141.166 67.2159 137.629 59.4678Z" fill="black"/>
<path d="M137.629 63.3419C137.629 63.3419 134.51 33.2086 137.629 29.5541C140.748 25.8996 193.151 -8.75978 241.604 31.9173C241.604 31.9173 246.177 32.1368 245.347 42.8936C244.858 49.7017 244.891 56.5392 245.447 63.3419C245.447 63.3419 141.166 71.0899 137.629 63.3419Z" fill="#33323D"/>
<path d="M247.218 49.5698C247.218 49.5698 250.543 62.4832 249.508 64.6332C248.472 66.7833 248.659 72.8138 248.659 72.8138C248.659 72.8138 248.884 76.6878 247.218 77.114C245.553 77.5401 244.099 77.7597 245.447 79.051C246.794 80.3423 245.447 82.2793 245.447 82.2793C245.447 82.2793 244.717 85.2946 245.447 87.2316C246.177 89.1686 241.18 89.9757 241.604 92.3969C242.028 94.8182 243.425 101.649 241.604 101.869C239.782 102.088 242.228 110.476 240.587 110.476C238.946 110.476 237.78 125.539 237.78 125.539C237.78 125.539 226.239 115.428 218.547 118.224C218.547 118.224 219.171 109.83 221.666 106.815C224.161 103.799 223.407 96.0579 223.407 96.0579L235.784 57.5309L247.218 49.5698Z" fill="#FFE7CB"/>
<path d="M185.459 227.632C182.757 230.724 179.844 214.208 179.844 214.208C179.844 214.208 172.152 225.185 167.161 217.869C163.705 212.801 166.432 198.441 168.409 190.106C169.295 186.399 170.044 183.881 170.044 183.881L181.273 181.944C181.273 181.944 181.31 184.475 181.56 187.549C181.896 191.7 182.626 196.853 184.18 198.086C186.918 200.223 188.166 224.513 185.459 227.632Z" fill="#AE6E79"/>
<path opacity="0.1" d="M179.638 34.2867C179.638 34.2867 160.087 34.0736 155.308 44.8304C150.53 55.5873 150.318 59.2546 148.446 60.9721C146.575 62.6896 168.821 71.7354 168.821 71.7354L169.863 108.751C169.863 108.751 174.229 104.174 181.298 106.246C188.366 108.319 197.311 106.246 197.311 106.246C197.311 106.246 196.893 105.465 202.72 106.246C208.547 107.028 227.05 96.9164 227.05 96.9164C227.05 96.9164 227.355 80.7231 226.944 77.2752C226.532 73.8274 240.144 48.4914 240.144 48.4914C240.144 48.4914 250.749 37.9476 239.732 34.2867C239.732 34.2867 235.833 28.2045 225.802 28.2626C215.771 28.3207 179.638 34.2867 179.638 34.2867Z" fill="black"/>
<path d="M179.638 33.6412C179.638 33.6412 160.087 33.4281 155.308 44.1849C150.53 54.9417 150.318 58.6091 148.446 60.3266C146.575 62.0441 168.821 71.0899 168.821 71.0899L169.863 108.106C169.863 108.106 174.229 103.528 181.298 105.601C188.366 107.673 197.311 105.601 197.311 105.601C197.311 105.601 196.894 104.82 202.72 105.601C208.547 106.382 227.05 96.2709 227.05 96.2709C227.05 96.2709 234.324 84.0032 233.912 80.5618C233.5 77.1204 248.466 51.0742 248.466 51.0742C248.466 51.0742 250.756 37.3021 239.732 33.6412C239.732 33.6412 235.833 27.559 225.802 27.6171C215.771 27.6752 179.638 33.6412 179.638 33.6412Z" fill="#FFE7CB"/>
<path opacity="0.1" d="M181.609 187.529C177.324 186.148 170.599 189.195 168.459 190.112C169.345 186.406 170.093 183.888 170.093 183.888L181.322 181.951C181.322 181.951 181.341 184.482 181.609 187.529Z" fill="black"/>
<path d="M154.472 60.3267H148.446C148.446 60.3267 147.198 73.4595 148.446 77.3335C149.694 81.2075 150.318 80.6458 149.9 83.5126C149.482 86.3793 152.813 90.7699 152.813 90.7699C152.813 90.7699 153.225 101.591 155.308 105.62C157.392 109.649 153.019 127.715 153.019 127.715C154.212 130.834 155.976 133.684 158.215 136.109C161.753 139.763 163.624 153.322 162.582 158.487C161.54 163.653 165.496 165.59 165.496 165.59C165.496 165.59 167.161 189.699 167.785 189.699C168.409 189.699 180.468 183.242 184.211 188.834L181.297 166.668L181.51 123.841C181.51 123.841 177.554 118.456 179.638 113.723C181.722 108.991 177.972 97.7947 177.972 97.7947L172.564 72.8332L154.472 60.3267Z" fill="#FFE7CB"/>
<path d="M117.042 400.593C117.042 400.593 108.308 398.656 108.103 400.593C107.897 402.53 97.7032 422.333 110.392 428.144C123.081 433.955 156.968 446.435 212.078 430.294C212.078 430.294 215.608 431.585 214.779 423.624C213.949 415.663 213.949 406.837 213.949 406.837C213.949 406.837 205.627 404.467 199.389 405.332C193.15 406.197 138.876 417.6 117.042 400.593Z" fill="#33323D"/>
<path opacity="0.1" d="M117.042 400.593C117.042 400.593 108.308 398.656 108.103 400.593C107.897 402.53 97.7032 422.333 110.392 428.144C123.081 433.955 156.968 446.435 212.078 430.294C212.078 430.294 215.608 431.585 214.779 423.624C213.949 415.663 213.949 406.837 213.949 406.837C213.949 406.837 205.627 404.467 199.389 405.332C193.15 406.197 138.876 417.6 117.042 400.593Z" fill="black"/>
<path d="M117.042 398.01C117.042 398.01 108.308 396.073 108.103 398.01C107.897 399.947 97.7032 419.75 110.392 425.561C123.081 431.372 156.968 443.853 212.078 427.711C212.078 427.711 215.608 429.002 214.779 421.041C213.949 413.08 213.949 404.254 213.949 404.254C213.949 404.254 205.627 401.884 199.389 402.749C193.15 403.615 138.876 415.017 117.042 398.01Z" fill="#33323D"/>
<path d="M167.972 68.0614C167.436 71.2187 166.219 74.2533 166.032 77.4494C165.845 80.6454 167.037 84.2805 169.887 85.5331C170.683 85.7791 171.454 86.1034 172.189 86.5016C173.287 87.27 173.737 88.7162 173.967 90.0721C174.274 91.8227 174.347 93.6084 174.186 95.3795C174.03 97.1616 173.662 99.0792 174.51 100.635C176.001 103.392 179.888 102.985 182.845 102.211L181.828 110.365C181.747 111.011 181.697 111.741 182.152 112.18C182.367 112.337 182.611 112.447 182.868 112.505C183.125 112.563 183.391 112.566 183.649 112.516C186.22 112.348 188.865 111.98 191.067 110.579C193.269 109.177 194.91 106.569 194.492 103.941C194.005 100.894 190.961 98.4723 191.372 95.4118C191.691 93.0422 193.93 91.5378 195.402 89.717C198.066 86.3854 198.21 81.3234 196.12 77.5527C194.03 73.782 189.994 71.4447 185.839 71.0185C183.537 70.7796 181.142 71.0702 178.977 70.2437C178.224 69.9578 177.544 69.4954 176.993 68.8928C176.441 68.2902 176.031 67.5637 175.795 66.77" fill="#444053"/>
<path d="M95.4199 355.183L97.5971 350.276C97.5971 350.276 109.35 338.945 112.051 338.151C114.753 337.356 125.776 333.896 127.441 333.896C129.107 333.896 159.469 332.172 159.469 332.172L163 340.785L124.896 349.443L112.051 359.128L95.4199 355.183Z" fill="#353847"/>
<path d="M186.968 223.035L184.978 238.886L184.211 244.987L175.271 246.279C175.271 246.279 174.304 244.135 172.938 240.842C168.79 230.847 160.979 210.237 165.508 206.68C171.528 201.941 172.994 217.656 172.994 217.656L179.857 214.208L186.968 223.035Z" fill="#FFB9B9"/>
<path d="M185.477 252.522H140.33V323.113H185.477V252.522Z" fill="white"/>
<path opacity="0.1" d="M185.477 252.522H140.33V323.113H185.477V252.522Z" fill="black"/>
<path d="M205.769 256.344L161.107 249.51L151.132 319.342L195.793 326.176L205.769 256.344Z" fill="white"/>
<path d="M188.299 259.688L165.311 256.17L160.177 292.111L183.165 295.629L188.299 259.688Z" fill="#9E9E9E"/>
<path d="M185.563 306.601L157.712 302.339L156.597 310.144L184.448 314.406L185.563 306.601Z" fill="#9E9E9E"/>
<path opacity="0.1" d="M197.311 74.4213C211.723 74.4213 223.407 62.3293 223.407 47.413C223.407 32.4968 211.723 20.4048 197.311 20.4048C182.9 20.4048 171.216 32.4968 171.216 47.413C171.216 62.3293 182.9 74.4213 197.311 74.4213Z" fill="black"/>
<path d="M197.311 73.7758C211.723 73.7758 223.407 61.6838 223.407 46.7675C223.407 31.8513 211.723 19.7593 197.311 19.7593C182.9 19.7593 171.216 31.8513 171.216 46.7675C171.216 61.6838 182.9 73.7758 197.311 73.7758Z" fill="#AE6E79"/>
<path d="M175.795 66.7831C175.618 66.0874 175.682 65.3494 175.976 64.6976C176.968 62.5604 179.794 62.3732 182.084 62.4829C187.467 62.7412 193.375 62.7735 197.586 59.2546C199.333 57.8083 201.285 54.1732 203.824 54.8641C206.083 55.4774 207.025 58.6477 209.376 59.3514C211.08 59.8615 212.845 59.048 214.579 58.7058C217.075 58.1957 219.632 58.6218 222.165 58.6412C224.698 58.6606 227.449 58.1634 229.177 56.2458C231.51 53.6631 231.13 49.6277 230.924 46.0894C230.668 41.5189 230.968 36.9332 231.816 32.44C232.664 27.972 233.968 22.9746 231.585 19.1457C229.314 15.4977 224.611 14.4969 221.398 11.7012C218.391 9.11854 216.8 4.97981 213.625 2.58438C209.626 -0.430883 204.192 0.00171227 199.277 0.524703L188.609 1.69982C185.858 2.00329 182.994 2.34549 180.73 4.04359C176.644 7.10405 176.082 13.4639 172.214 16.8149C170.493 18.2999 168.29 19.036 166.325 20.1465C164.36 21.2571 162.464 23.0133 162.239 25.3119C162.052 27.2489 163.063 29.0374 163.556 30.9033C164.722 35.3584 162.901 39.9427 161.734 44.4301C160.567 48.9175 160.343 54.3669 163.73 57.3434C164.416 57.9503 165.215 58.4152 165.882 59.048C168.172 61.211 168.484 64.859 167.954 68.0098" fill="#444053"/>
<path d="M199.439 80.5037C199.783 80.5037 200.063 79.781 200.063 78.8896C200.063 77.9981 199.783 77.2754 199.439 77.2754C199.094 77.2754 198.815 77.9981 198.815 78.8896C198.815 79.781 199.094 80.5037 199.439 80.5037Z" fill="#444053"/>
<path d="M199.439 87.2313C199.783 87.2313 200.063 86.5086 200.063 85.6171C200.063 84.7256 199.783 84.0029 199.439 84.0029C199.094 84.0029 198.815 84.7256 198.815 85.6171C198.815 86.5086 199.094 87.2313 199.439 87.2313Z" fill="#444053"/>
<path d="M185.602 227.586C186.27 226.792 186.713 224.752 186.968 222.059L179.532 212.465C179.532 212.465 182.683 231.066 185.602 227.586Z" fill="#AE6E79"/>
<path opacity="0.1" d="M193.986 386.175C193.986 386.175 181.784 405.7 143.661 403.608C107.747 401.671 90.217 383.379 91.053 376.923C91.8889 370.466 88.7635 354.751 96.4554 350.231C100.916 347.616 106.786 349.165 110.928 350.935C112.36 351.536 113.926 351.706 115.446 351.423C116.967 351.141 118.379 350.419 119.519 349.34C123.305 345.808 130.367 341.831 141.515 344.962C142.95 345.358 144.463 345.329 145.882 344.878C150.523 343.413 161.572 340.869 169.588 346.518C170.855 347.422 172.344 347.934 173.882 347.995C175.419 348.055 176.942 347.662 178.272 346.86L178.384 346.789C182.127 344.42 199.594 366.805 199.594 366.805C199.594 366.805 200.43 384.025 193.986 386.175Z" fill="black"/>
<path d="M193.986 386.821C193.986 386.821 181.784 406.346 143.661 404.254C107.747 402.317 90.217 384.025 91.053 377.568C91.8889 371.112 88.7635 355.396 96.4554 350.877C100.916 348.262 106.786 349.811 110.928 351.58C112.36 352.182 113.926 352.351 115.446 352.069C116.967 351.787 118.379 351.064 119.519 349.986C123.305 346.454 130.367 342.476 141.515 345.608C142.95 346.004 144.463 345.975 145.882 345.524C150.523 344.058 161.572 341.514 169.588 347.164C170.855 348.068 172.344 348.58 173.882 348.641C175.419 348.701 176.942 348.308 178.272 347.506L178.384 347.435C182.127 345.066 199.594 367.451 199.594 367.451C199.594 367.451 200.43 384.671 193.986 386.821Z" fill="#353847"/>
<path opacity="0.1" d="M143.661 394.466C157.388 394.466 168.515 382.949 168.515 368.742C168.515 354.536 157.388 343.019 143.661 343.019C129.935 343.019 118.808 354.536 118.808 368.742C118.808 382.949 129.935 394.466 143.661 394.466Z" fill="black"/>
<path d="M143.661 395.111C157.388 395.111 168.515 383.595 168.515 369.388C168.515 355.181 157.388 343.665 143.661 343.665C129.935 343.665 118.808 355.181 118.808 369.388C118.808 383.595 129.935 395.111 143.661 395.111Z" fill="#FFB9B9"/>
<path d="M136.537 347.151C133.929 347.881 131.359 349.275 130.087 351.567C129.319 352.949 129.051 354.608 127.941 355.758C126.369 357.391 123.717 357.424 121.59 358.34C119.463 359.257 118.059 362.486 120.143 363.506C117.972 363.622 116.362 365.694 116.094 367.754C115.826 369.814 116.581 371.867 117.31 373.83C119.694 380.183 122.258 386.814 127.51 391.334C136.069 398.707 148.97 398.365 160.468 397.584C161.407 397.616 162.338 397.394 163.169 396.938C164.416 396.086 164.572 394.453 164.778 393.019C165.645 386.898 168.852 381.339 170.948 375.496C173.044 369.652 173.905 362.789 170.374 357.617C165.178 349.947 145.283 344.697 136.537 347.151Z" fill="#3A2B18"/>
<path opacity="0.1" d="M184.978 238.886L184.211 244.987L175.271 246.278C175.271 246.278 174.304 244.135 172.938 240.842L184.835 238.531L184.978 238.886Z" fill="black"/>
<path d="M194.398 373.695L199.601 367.451L198.559 333.018C199.072 330.533 199.42 328.016 199.601 325.483C199.807 321.822 197 313.648 197 313.648C197.435 312.011 198.026 310.424 198.765 308.908C200.013 306.326 197.006 300.515 197.006 300.515C197.006 300.515 192.527 285.451 194.398 277.916C196.27 270.381 193.943 266.081 193.943 266.081C193.943 266.081 192.115 257.688 192.321 254.246C192.527 250.805 188.16 247.57 188.16 247.57L184.835 239.176L171.528 241.759V270.814C171.528 270.814 172.358 298.578 171.528 303.962C170.699 309.347 173.188 314.506 173.188 314.506C173.188 314.506 171.734 322.467 172.982 325.483C174.229 328.498 176.725 335.813 176.725 335.813C176.262 338.428 176.405 341.119 177.143 343.665C178.39 347.435 177.143 349.585 177.143 349.585L194.398 373.695Z" fill="#353847"/>
<g opacity="0.1">
<path opacity="0.1" d="M231.835 30.3157C231.131 34.0952 230.816 37.941 230.893 41.7892C230.946 38.5894 231.27 35.4006 231.86 32.2592C232.409 29.3924 233.107 26.3061 232.958 23.4458C232.728 25.7586 232.353 28.0534 231.835 30.3157V30.3157Z" fill="black"/>
<path opacity="0.1" d="M165.901 56.969C165.234 56.3233 164.435 55.8713 163.749 55.2579C161.927 53.6502 161.16 51.3194 161.01 48.8013C160.83 52.0296 161.466 55.1546 163.749 57.1949C164.435 57.8083 165.234 58.2732 165.901 58.906C167.297 60.3351 168.106 62.2663 168.16 64.2973C168.341 61.5855 167.81 58.7639 165.901 56.969Z" fill="black"/>
<path opacity="0.1" d="M163.911 32.8598C164.02 31.4961 163.907 30.1231 163.575 28.7986C163.213 27.4168 162.564 26.0674 162.327 24.6792C162.327 24.8277 162.277 24.9827 162.258 25.1441C162.077 27.0811 163.088 28.8696 163.575 30.7356C163.754 31.4305 163.867 32.142 163.911 32.8598V32.8598Z" fill="black"/>
<path opacity="0.1" d="M229.196 54.1213C227.468 56.0583 224.717 56.5361 222.184 56.5167C219.651 56.4974 217.087 56.0712 214.598 56.5878C212.864 56.9493 211.098 57.7564 209.395 57.2334C207.044 56.5297 206.102 53.3594 203.85 52.7461C201.286 52.0487 199.333 55.6838 197.611 57.1301C193.4 60.6167 187.492 60.5844 182.109 60.3585C179.819 60.2487 176.993 60.4359 176.008 62.5796C175.707 63.2296 175.643 63.97 175.827 64.6651L168.203 65.9047C168.175 66.5543 168.106 67.2013 167.998 67.8418L175.827 66.5504C175.643 65.8554 175.707 65.1149 176.008 64.4649C176.993 62.3213 179.819 62.134 182.109 62.2438C187.492 62.5021 193.4 62.5344 197.611 59.0155C199.358 57.5692 201.311 53.9341 203.85 54.6314C206.102 55.2383 207.044 58.415 209.395 59.1188C211.098 59.6224 212.864 58.8153 214.598 58.4731C217.094 57.9566 219.651 58.3827 222.184 58.4021C224.717 58.4215 227.468 57.9243 229.196 56.0067C230.924 54.089 231.174 51.2287 231.068 48.4395C230.993 50.6024 230.562 52.604 229.196 54.1213Z" fill="black"/>
</g>
<g opacity="0.1">
<path opacity="0.1" d="M171.447 85.1327C170.712 84.7323 169.941 84.4079 169.145 84.1642C167.791 83.5275 166.716 82.3897 166.132 80.9746C166.6 83.2022 167.785 85.2296 169.769 86.1012C170.565 86.3449 171.336 86.6693 172.071 87.0697C172.541 87.4132 172.92 87.8726 173.175 88.4062C172.925 87.1407 172.47 85.8494 171.447 85.1327Z" fill="black"/>
<path opacity="0.1" d="M182.102 100.842C179.226 101.597 175.471 101.991 173.893 99.4663C173.942 100.075 174.112 100.666 174.392 101.203C175.739 103.689 179.033 103.605 181.834 102.992L182.102 100.842Z" fill="black"/>
<path opacity="0.1" d="M193.755 102.611C194.155 105.232 192.508 107.847 190.324 109.222C188.141 110.598 185.477 110.979 182.907 111.159C182.498 111.214 182.083 111.165 181.697 111.017C181.58 111.29 181.542 111.593 181.588 111.888C181.634 112.182 181.763 112.457 181.957 112.677C182.152 112.898 182.404 113.055 182.684 113.13C182.963 113.204 183.258 113.192 183.531 113.096C186.101 112.929 188.746 112.561 190.948 111.159C193.15 109.758 194.797 107.15 194.373 104.522C194.253 103.859 194.045 103.215 193.755 102.611V102.611Z" fill="black"/>
<path opacity="0.1" d="M196.525 79.2378C196.906 80.8076 196.936 82.4467 196.611 84.0301C196.287 85.6134 195.617 87.0992 194.654 88.374C193.182 90.2206 190.942 91.6992 190.624 94.0688C190.518 95.1582 190.735 96.2552 191.248 97.2132C191.191 96.8128 191.191 96.4061 191.248 96.0058C191.566 93.6362 193.805 92.1318 195.278 90.311C197.698 87.2828 198.035 82.8212 196.525 79.2378Z" fill="black"/>
</g>
<g opacity="0.1">
<path opacity="0.1" d="M121.596 359.335C123.717 358.425 126.368 358.392 127.947 356.752C129.057 355.603 129.325 353.944 130.093 352.568C131.34 350.27 133.929 348.882 136.537 348.152C145.271 345.698 165.184 350.941 170.374 358.541C171.895 360.84 172.724 363.554 172.757 366.34C172.957 363.124 172.121 359.929 170.38 357.256C165.19 349.656 145.296 344.414 136.543 346.867C133.936 347.597 131.365 348.985 130.099 351.283C129.332 352.659 129.063 354.318 127.953 355.467C126.375 357.101 123.723 357.133 121.602 358.05C119.986 358.741 118.789 360.781 119.225 362.15C119.399 361.531 119.702 360.958 120.111 360.472C120.52 359.986 121.027 359.598 121.596 359.335V359.335Z" fill="black"/>
<path opacity="0.1" d="M116.106 368.717C116.368 366.65 117.978 364.584 120.155 364.468C119.927 364.369 119.722 364.219 119.557 364.028C119.392 363.837 119.27 363.61 119.201 363.364C118.373 363.682 117.644 364.229 117.095 364.945C116.545 365.661 116.195 366.518 116.082 367.425C116.022 367.951 116.022 368.482 116.082 369.007C116.106 368.91 116.106 368.813 116.106 368.717Z" fill="black"/>
</g>
<path d="M248.254 134.733H191.485V211.354H248.254V134.733Z" fill="white"/>
<path opacity="0.1" d="M248.254 134.733H191.485V211.354H248.254V134.733Z" fill="black"/>
<path d="M269.944 139.228L213.997 149.188L226.546 224.701L282.494 214.74L269.944 139.228Z" fill="white"/>
<path d="M240.701 198.325L227.556 200.666L230.505 218.406L243.649 216.066L240.701 198.325Z" fill="#9E9E9E"/>
<path d="M258.89 195.084L245.745 197.424L248.694 215.165L261.838 212.824L258.89 195.084Z" fill="#9E9E9E"/>
<path d="M271.744 169.092L225.646 177.285L228.603 195.106L274.7 186.913L271.744 169.092Z" fill="#9E9E9E"/>
<path d="M267.901 147.822L221.804 156.015L222.463 159.991L268.561 151.798L267.901 147.822Z" fill="#9E9E9E"/>
<path d="M269.413 155.136L223.315 163.329L223.975 167.304L270.073 159.112L269.413 155.136Z" fill="#9E9E9E"/>
<path d="M223.407 113.917C223.407 113.917 197.312 141.035 210.412 147.924C223.513 154.814 232.041 125.003 232.041 125.003L234.112 118.224L223.407 113.917Z" fill="#AE6E79"/>
<path opacity="0.1" d="M221.123 111.521L217.898 118.895C217.898 118.895 233.806 121.206 237.131 126.185L235.16 113.174L232.82 107.622L221.123 111.521Z" fill="black"/>
<path d="M221.747 110.876L218.522 118.249C218.522 118.249 234.43 120.561 237.755 125.539L235.784 112.529L233.444 106.976L221.747 110.876Z" fill="#FFE7CB"/>
<path d="M318.043 246.447L317.7 246.692L318.174 246.911L318.685 246.866L318.748 246.498L318.043 246.447Z" fill="#464A5F"/>
<path opacity="0.1" d="M318.043 246.447L317.7 246.692L318.174 246.911L318.685 246.866L318.748 246.498L318.043 246.447Z" fill="black"/>
<path d="M318.043 246.446L317.693 246.679L317.419 246.33L317.587 246.046L317.743 245.994L318.043 246.446Z" fill="#9C9CA1"/>
<path opacity="0.1" d="M318.043 246.446L317.693 246.679L317.419 246.33L317.587 246.046L317.743 245.994L318.043 246.446Z" fill="black"/>
<path d="M379.447 201.824L353.907 163.646C353.681 163.305 353.392 163.014 353.057 162.789C352.721 162.564 352.347 162.409 351.954 162.334C351.561 162.259 351.158 162.265 350.767 162.352C350.376 162.438 350.006 162.604 349.677 162.839L292.746 203.283C292.08 203.757 291.622 204.484 291.474 205.306C291.325 206.128 291.498 206.977 291.954 207.667L317.425 246.33L379.447 201.824Z" fill="#9C9CA1"/>
<path opacity="0.1" d="M379.447 201.824L353.907 163.646C353.681 163.305 353.392 163.014 353.057 162.789C352.721 162.564 352.347 162.409 351.954 162.334C351.561 162.259 351.158 162.265 350.767 162.352C350.376 162.438 350.006 162.604 349.677 162.839L292.746 203.283C292.08 203.757 291.622 204.484 291.474 205.306C291.325 206.128 291.498 206.977 291.954 207.667L317.425 246.33L379.447 201.824Z" fill="black"/>
<path d="M380.071 201.915L354.531 163.737C354.304 163.396 354.015 163.104 353.679 162.879C353.343 162.654 352.968 162.5 352.575 162.425C352.181 162.35 351.777 162.356 351.386 162.442C350.995 162.529 350.624 162.695 350.295 162.93L293.37 203.4C292.704 203.873 292.246 204.6 292.097 205.422C291.947 206.243 292.118 207.092 292.571 207.784L318.043 246.466L380.071 201.915Z" fill="#9C9CA1"/>
<path d="M401.419 209.463L380.208 202.412L318.174 246.918L339.721 254.214C340.203 254.376 340.716 254.42 341.217 254.341C341.718 254.263 342.195 254.064 342.61 253.762L401.593 210.657C401.704 210.593 401.793 210.496 401.849 210.378C401.904 210.26 401.924 210.127 401.905 209.998C401.886 209.868 401.829 209.747 401.742 209.652C401.656 209.556 401.543 209.49 401.419 209.463Z" fill="#464A5F"/>
<path opacity="0.1" d="M401.419 209.463L380.208 202.412L318.174 246.918L339.721 254.214C340.203 254.376 340.716 254.42 341.217 254.341C341.718 254.263 342.195 254.064 342.61 253.762L401.593 210.657C401.704 210.593 401.793 210.496 401.849 210.378C401.904 210.26 401.924 210.127 401.905 209.998C401.886 209.868 401.829 209.747 401.742 209.652C401.656 209.556 401.543 209.49 401.419 209.463Z" fill="black"/>
<path d="M401.288 209.017L380.077 201.96L318.043 246.466L339.59 253.749C340.072 253.914 340.584 253.96 341.086 253.882C341.587 253.805 342.065 253.607 342.479 253.303L401.463 210.199C401.569 210.133 401.654 210.036 401.706 209.92C401.759 209.804 401.777 209.674 401.759 209.547C401.74 209.42 401.685 209.302 401.601 209.208C401.517 209.114 401.408 209.047 401.288 209.017V209.017Z" fill="#464A5F"/>
<g opacity="0.1">
<path opacity="0.1" d="M370.052 200.21L368.487 197.886C368.392 197.751 368.252 197.659 368.094 197.629C367.936 197.599 367.772 197.633 367.638 197.724L365.311 199.332C365.181 199.427 365.09 199.571 365.059 199.733C365.028 199.895 365.058 200.064 365.143 200.204L366.584 202.496C366.674 202.633 366.812 202.729 366.969 202.764C367.126 202.799 367.289 202.77 367.426 202.683L369.878 201.088C370.011 200.994 370.104 200.849 370.136 200.686C370.169 200.522 370.139 200.351 370.052 200.21V200.21Z" fill="black"/>
<path opacity="0.1" d="M365.873 203.206L364.301 200.888C364.206 200.753 364.066 200.661 363.908 200.631C363.75 200.601 363.586 200.635 363.452 200.726L361.131 202.347C361 202.441 360.908 202.584 360.876 202.747C360.843 202.909 360.872 203.078 360.957 203.219L362.398 205.511C362.487 205.649 362.624 205.746 362.781 205.782C362.938 205.819 363.103 205.791 363.24 205.704L365.698 204.11C365.767 204.063 365.827 204.002 365.874 203.931C365.92 203.86 365.952 203.78 365.969 203.696C365.985 203.611 365.985 203.525 365.968 203.441C365.952 203.356 365.919 203.277 365.873 203.206Z" fill="black"/>
<path opacity="0.1" d="M361.481 206.35L359.909 204.032C359.815 203.897 359.674 203.805 359.516 203.775C359.358 203.745 359.195 203.779 359.06 203.871L356.733 205.491C356.601 205.587 356.51 205.732 356.478 205.895C356.447 206.059 356.478 206.229 356.565 206.37L358.006 208.662C358.096 208.799 358.234 208.895 358.391 208.93C358.548 208.965 358.711 208.936 358.848 208.849L361.3 207.254C361.37 207.208 361.43 207.147 361.477 207.076C361.524 207.006 361.557 206.926 361.574 206.842C361.591 206.757 361.591 206.67 361.575 206.586C361.559 206.502 361.527 206.422 361.481 206.35V206.35Z" fill="black"/>
<path opacity="0.1" d="M357.033 209.54L355.461 207.215C355.367 207.082 355.227 206.991 355.071 206.961C354.914 206.931 354.752 206.965 354.619 207.054L352.292 208.681C352.161 208.776 352.071 208.92 352.039 209.082C352.008 209.244 352.038 209.413 352.123 209.553L353.564 211.845C353.653 211.981 353.79 212.078 353.945 212.114C354.101 212.15 354.263 212.123 354.4 212.039L356.858 210.437C356.927 210.39 356.986 210.33 357.032 210.259C357.078 210.189 357.11 210.11 357.126 210.026C357.142 209.943 357.142 209.857 357.126 209.773C357.11 209.69 357.079 209.611 357.033 209.54Z" fill="black"/>
<path opacity="0.1" d="M352.591 212.723L351.019 210.405C350.925 210.27 350.784 210.178 350.626 210.148C350.468 210.118 350.305 210.152 350.17 210.244L347.85 211.865C347.718 211.959 347.627 212.102 347.594 212.264C347.562 212.426 347.591 212.595 347.675 212.736L349.116 215.028C349.205 215.167 349.343 215.264 349.5 215.3C349.657 215.336 349.821 215.308 349.958 215.222L352.416 213.621C352.485 213.574 352.544 213.513 352.59 213.443C352.636 213.372 352.668 213.293 352.684 213.21C352.7 213.126 352.7 213.04 352.684 212.957C352.668 212.873 352.637 212.794 352.591 212.723Z" fill="black"/>
<path opacity="0.1" d="M348.343 216.197L346.39 213.317C346.369 213.285 346.343 213.258 346.312 213.236C346.281 213.215 346.246 213.2 346.209 213.193C346.173 213.186 346.135 213.186 346.099 213.194C346.062 213.202 346.028 213.218 345.997 213.24L343.14 215.235C343.108 215.256 343.081 215.283 343.06 215.315C343.039 215.347 343.024 215.383 343.017 215.42C343.009 215.458 343.009 215.497 343.016 215.535C343.023 215.573 343.038 215.609 343.059 215.641L344.849 218.489C344.89 218.554 344.954 218.6 345.028 218.617C345.101 218.634 345.178 218.621 345.242 218.579L348.262 216.642C348.298 216.621 348.329 216.592 348.353 216.557C348.378 216.521 348.394 216.481 348.402 216.439C348.41 216.397 348.408 216.353 348.398 216.311C348.388 216.269 348.369 216.23 348.343 216.197V216.197Z" fill="black"/>
<path opacity="0.1" d="M343.901 219.38L341.936 216.5C341.915 216.468 341.887 216.44 341.856 216.419C341.824 216.398 341.789 216.383 341.752 216.376C341.715 216.368 341.677 216.369 341.64 216.377C341.603 216.385 341.568 216.401 341.537 216.423L338.679 218.418C338.618 218.462 338.576 218.529 338.562 218.605C338.548 218.681 338.563 218.76 338.605 218.825L340.395 221.672C340.414 221.706 340.44 221.735 340.47 221.758C340.501 221.781 340.536 221.797 340.572 221.806C340.609 221.814 340.648 221.815 340.685 221.807C340.722 221.8 340.757 221.785 340.788 221.762L343.801 219.825C343.84 219.807 343.874 219.779 343.901 219.745C343.927 219.711 343.946 219.671 343.956 219.628C343.965 219.585 343.966 219.54 343.956 219.497C343.947 219.454 343.928 219.414 343.901 219.38V219.38Z" fill="black"/>
<path opacity="0.1" d="M339.965 222.201L338.012 219.348C337.968 219.285 337.903 219.243 337.829 219.23C337.756 219.217 337.681 219.233 337.619 219.277L334.762 221.265C334.699 221.31 334.656 221.378 334.641 221.455C334.626 221.532 334.64 221.612 334.681 221.678L336.471 224.526C336.513 224.59 336.577 224.635 336.65 224.652C336.723 224.669 336.8 224.656 336.864 224.616L339.884 222.679C339.925 222.659 339.961 222.629 339.989 222.591C340.017 222.553 340.036 222.509 340.044 222.462C340.052 222.415 340.049 222.367 340.035 222.322C340.021 222.276 339.997 222.235 339.965 222.201V222.201Z" fill="black"/>
<path opacity="0.1" d="M335.56 225.352L333.608 222.473C333.564 222.41 333.498 222.368 333.425 222.355C333.352 222.342 333.276 222.358 333.215 222.402L330.357 224.39C330.326 224.412 330.299 224.439 330.277 224.472C330.256 224.504 330.241 224.541 330.234 224.579C330.226 224.618 330.226 224.657 330.233 224.696C330.241 224.734 330.255 224.771 330.276 224.803L332.067 227.651C332.109 227.715 332.173 227.76 332.246 227.777C332.319 227.794 332.396 227.781 332.46 227.741L335.479 225.804C335.516 225.782 335.547 225.752 335.571 225.717C335.596 225.681 335.612 225.64 335.62 225.597C335.628 225.555 335.626 225.51 335.616 225.468C335.606 225.426 335.587 225.386 335.56 225.352V225.352Z" fill="black"/>
<path opacity="0.1" d="M331.293 228.387L329.341 225.507C329.32 225.475 329.293 225.448 329.262 225.426C329.231 225.405 329.196 225.391 329.16 225.383C329.123 225.376 329.086 225.376 329.049 225.384C329.013 225.392 328.978 225.408 328.948 225.43L326.09 227.425C326.059 227.446 326.032 227.473 326.011 227.505C325.99 227.537 325.975 227.573 325.967 227.611C325.96 227.648 325.959 227.688 325.967 227.725C325.974 227.763 325.988 227.8 326.009 227.832L327.8 230.679C327.841 230.744 327.905 230.791 327.978 230.808C328.052 230.824 328.129 230.811 328.193 230.769L331.212 228.832C331.248 228.811 331.28 228.782 331.304 228.747C331.328 228.712 331.345 228.671 331.353 228.629C331.36 228.587 331.359 228.543 331.349 228.501C331.339 228.459 331.32 228.42 331.293 228.387V228.387Z" fill="black"/>
<path opacity="0.1" d="M327.026 231.473L325.093 228.587C325.049 228.525 324.983 228.483 324.91 228.469C324.837 228.456 324.761 228.473 324.7 228.516L321.842 230.505C321.811 230.526 321.783 230.554 321.762 230.586C321.741 230.619 321.726 230.655 321.719 230.694C321.711 230.732 321.711 230.772 321.718 230.81C321.726 230.849 321.74 230.885 321.761 230.918L323.552 233.765C323.594 233.829 323.658 233.875 323.731 233.891C323.804 233.908 323.88 233.895 323.945 233.856L326.964 231.919C326.999 231.896 327.029 231.865 327.051 231.829C327.073 231.793 327.088 231.753 327.094 231.711C327.1 231.668 327.097 231.625 327.085 231.584C327.074 231.543 327.054 231.505 327.026 231.473Z" fill="black"/>
<path opacity="0.1" d="M322.759 234.527L320.806 231.648C320.786 231.616 320.759 231.588 320.728 231.567C320.697 231.546 320.662 231.531 320.626 231.524C320.589 231.516 320.551 231.517 320.515 231.525C320.479 231.533 320.444 231.548 320.413 231.57L317.556 233.552C317.525 233.573 317.498 233.6 317.477 233.632C317.455 233.664 317.441 233.7 317.433 233.738C317.425 233.776 317.425 233.815 317.433 233.853C317.44 233.891 317.454 233.927 317.475 233.959L319.266 236.806C319.306 236.872 319.371 236.918 319.444 236.935C319.518 236.952 319.595 236.938 319.659 236.897L322.678 234.96C322.712 234.938 322.742 234.91 322.765 234.876C322.788 234.842 322.804 234.803 322.811 234.762C322.819 234.721 322.818 234.679 322.809 234.639C322.8 234.599 322.783 234.56 322.759 234.527V234.527Z" fill="black"/>
<path opacity="0.1" d="M367.245 196.007L365.673 193.682C365.579 193.547 365.438 193.455 365.28 193.425C365.122 193.395 364.959 193.429 364.825 193.521L362.523 195.148C362.391 195.242 362.299 195.385 362.267 195.547C362.234 195.71 362.263 195.879 362.348 196.019L363.789 198.312C363.879 198.449 364.017 198.545 364.174 198.58C364.331 198.615 364.494 198.586 364.631 198.499L367.089 196.904C367.225 196.806 367.317 196.657 367.346 196.489C367.376 196.32 367.339 196.147 367.245 196.007Z" fill="black"/>
<path opacity="0.1" d="M361.1 186.819L359.528 184.482C359.434 184.348 359.295 184.258 359.138 184.228C358.981 184.198 358.82 184.231 358.686 184.32L356.359 185.941C356.227 186.035 356.136 186.178 356.103 186.34C356.071 186.503 356.1 186.672 356.184 186.812L357.625 189.104C357.715 189.243 357.852 189.34 358.009 189.376C358.166 189.412 358.33 189.384 358.468 189.298L360.926 187.703C361.061 187.609 361.154 187.463 361.187 187.298C361.22 187.133 361.189 186.961 361.1 186.819V186.819Z" fill="black"/>
<path opacity="0.1" d="M363.059 199.003L361.487 196.685C361.393 196.552 361.254 196.461 361.097 196.431C360.94 196.401 360.779 196.434 360.645 196.523L358.318 198.144C358.187 198.239 358.097 198.383 358.066 198.545C358.034 198.707 358.064 198.876 358.15 199.016L359.584 201.308C359.674 201.446 359.811 201.543 359.968 201.579C360.125 201.616 360.289 201.588 360.427 201.501L362.885 199.907C362.954 199.86 363.014 199.799 363.06 199.728C363.107 199.657 363.139 199.577 363.155 199.493C363.171 199.408 363.171 199.322 363.155 199.238C363.138 199.153 363.106 199.074 363.059 199.003Z" fill="black"/>
<path opacity="0.1" d="M358.667 202.147L357.095 199.829C357.001 199.694 356.86 199.602 356.702 199.572C356.544 199.542 356.381 199.576 356.247 199.668L353.926 201.269C353.793 201.363 353.7 201.508 353.668 201.672C353.635 201.835 353.665 202.006 353.752 202.147L355.193 204.439C355.283 204.576 355.421 204.673 355.577 204.707C355.734 204.742 355.898 204.713 356.035 204.626L358.493 203.032C358.628 202.937 358.722 202.792 358.754 202.626C358.787 202.461 358.756 202.289 358.667 202.147V202.147Z" fill="black"/>
<path opacity="0.1" d="M354.219 205.337L352.654 203.012C352.559 202.877 352.419 202.785 352.261 202.755C352.103 202.725 351.939 202.759 351.805 202.851L349.478 204.497C349.348 204.593 349.257 204.736 349.226 204.898C349.195 205.06 349.225 205.229 349.31 205.369L350.751 207.661C350.841 207.798 350.979 207.894 351.136 207.929C351.293 207.964 351.456 207.935 351.593 207.848L354.045 206.253C354.116 206.207 354.177 206.145 354.225 206.073C354.272 206.001 354.305 205.919 354.322 205.834C354.338 205.748 354.337 205.66 354.32 205.574C354.302 205.489 354.268 205.408 354.219 205.337Z" fill="black"/>
<path opacity="0.1" d="M357.014 189.963L355.442 187.645C355.348 187.512 355.209 187.421 355.052 187.391C354.896 187.361 354.734 187.394 354.6 187.484L352.273 189.104C352.141 189.199 352.05 189.342 352.017 189.504C351.985 189.666 352.014 189.835 352.098 189.976L353.539 192.268C353.629 192.406 353.766 192.504 353.923 192.54C354.08 192.576 354.244 192.548 354.382 192.462L356.84 190.867C356.909 190.82 356.969 190.759 357.015 190.688C357.062 190.617 357.094 190.537 357.11 190.453C357.127 190.369 357.126 190.282 357.11 190.198C357.093 190.114 357.061 190.034 357.014 189.963Z" fill="black"/>
<path opacity="0.1" d="M352.622 193.114L351.05 190.79C350.956 190.655 350.815 190.563 350.657 190.533C350.499 190.503 350.336 190.537 350.202 190.628L347.881 192.229C347.749 192.324 347.658 192.467 347.625 192.629C347.593 192.791 347.622 192.96 347.706 193.101L349.147 195.393C349.238 195.53 349.375 195.627 349.532 195.661C349.689 195.696 349.853 195.667 349.99 195.58L352.447 193.986C352.579 193.891 352.671 193.748 352.703 193.586C352.736 193.424 352.707 193.255 352.622 193.114Z" fill="black"/>
<path opacity="0.1" d="M348.174 196.297L346.602 193.979C346.509 193.845 346.37 193.753 346.214 193.722C346.057 193.69 345.895 193.722 345.76 193.811L343.433 195.458C343.303 195.553 343.212 195.697 343.181 195.859C343.15 196.021 343.18 196.189 343.265 196.329L344.706 198.621C344.795 198.76 344.933 198.857 345.089 198.893C345.246 198.929 345.411 198.901 345.548 198.815L348 197.214C348.071 197.167 348.132 197.106 348.18 197.033C348.227 196.961 348.26 196.88 348.277 196.794C348.293 196.708 348.292 196.62 348.275 196.535C348.257 196.449 348.223 196.368 348.174 196.297Z" fill="black"/>
<path opacity="0.1" d="M349.778 208.52L348.206 206.202C348.113 206.068 347.974 205.975 347.817 205.944C347.66 205.913 347.498 205.945 347.364 206.034L345.055 207.661C344.925 207.756 344.834 207.9 344.803 208.062C344.772 208.224 344.802 208.393 344.887 208.533L346.303 210.825C346.392 210.961 346.528 211.058 346.684 211.094C346.839 211.13 347.002 211.103 347.139 211.018L349.597 209.417C349.666 209.371 349.725 209.311 349.772 209.24C349.819 209.17 349.851 209.091 349.868 209.007C349.885 208.924 349.885 208.838 349.87 208.754C349.855 208.671 349.823 208.591 349.778 208.52Z" fill="black"/>
<path opacity="0.1" d="M345.336 211.703L343.764 209.385C343.67 209.25 343.529 209.158 343.371 209.128C343.213 209.098 343.05 209.132 342.916 209.223L340.595 210.844C340.463 210.938 340.372 211.081 340.339 211.244C340.307 211.406 340.336 211.575 340.42 211.716L341.861 214.008C341.95 214.146 342.088 214.243 342.245 214.28C342.402 214.316 342.566 214.288 342.703 214.201L345.161 212.607C345.231 212.56 345.291 212.499 345.337 212.428C345.383 212.357 345.416 212.277 345.432 212.193C345.448 212.108 345.448 212.022 345.432 211.938C345.415 211.854 345.383 211.774 345.336 211.703Z" fill="black"/>
<path opacity="0.1" d="M341.088 215.177L339.135 212.297C339.114 212.265 339.088 212.238 339.057 212.216C339.026 212.195 338.991 212.18 338.954 212.173C338.918 212.166 338.88 212.166 338.844 212.174C338.807 212.182 338.773 212.198 338.742 212.22L335.885 214.215C335.853 214.236 335.826 214.263 335.805 214.295C335.784 214.327 335.769 214.362 335.762 214.4C335.754 214.438 335.754 214.477 335.761 214.515C335.768 214.553 335.783 214.589 335.804 214.621L337.594 217.469C337.614 217.502 337.64 217.531 337.67 217.553C337.701 217.576 337.736 217.592 337.772 217.6C337.809 217.608 337.847 217.609 337.884 217.602C337.921 217.595 337.956 217.581 337.987 217.559L341.007 215.622C341.043 215.601 341.074 215.572 341.098 215.537C341.123 215.501 341.139 215.461 341.147 215.419C341.155 215.376 341.153 215.333 341.143 215.291C341.133 215.249 341.114 215.21 341.088 215.177V215.177Z" fill="black"/>
<path opacity="0.1" d="M337.151 217.998L335.199 215.112C335.155 215.05 335.089 215.007 335.016 214.994C334.943 214.981 334.867 214.998 334.806 215.041L331.955 217.03C331.892 217.074 331.849 217.142 331.834 217.219C331.818 217.296 331.833 217.376 331.874 217.443L333.664 220.29C333.706 220.354 333.77 220.399 333.843 220.416C333.916 220.433 333.993 220.42 334.057 220.381L337.076 218.444C337.114 218.423 337.146 218.395 337.171 218.359C337.196 218.324 337.213 218.283 337.22 218.24C337.228 218.197 337.225 218.153 337.213 218.111C337.201 218.069 337.18 218.03 337.151 217.998V217.998Z" fill="black"/>
<path opacity="0.1" d="M332.747 221.149L330.794 218.269C330.75 218.207 330.685 218.165 330.612 218.151C330.538 218.138 330.463 218.155 330.401 218.198L327.544 220.187C327.513 220.208 327.485 220.235 327.464 220.267C327.443 220.299 327.428 220.335 327.421 220.373C327.413 220.41 327.413 220.449 327.42 220.487C327.428 220.525 327.442 220.561 327.463 220.594L329.253 223.447C329.295 223.512 329.359 223.557 329.432 223.573C329.506 223.59 329.582 223.578 329.646 223.538L332.666 221.601C332.702 221.579 332.734 221.549 332.758 221.513C332.782 221.478 332.799 221.437 332.806 221.394C332.814 221.351 332.813 221.307 332.802 221.265C332.792 221.222 332.773 221.183 332.747 221.149V221.149Z" fill="black"/>
<path opacity="0.1" d="M328.48 224.209L326.527 221.33C326.506 221.298 326.48 221.27 326.449 221.249C326.418 221.228 326.383 221.213 326.346 221.206C326.31 221.199 326.272 221.199 326.236 221.207C326.199 221.215 326.165 221.23 326.134 221.252L323.277 223.222C323.246 223.242 323.218 223.27 323.197 223.302C323.176 223.333 323.161 223.369 323.154 223.407C323.146 223.445 323.146 223.484 323.153 223.522C323.16 223.56 323.175 223.596 323.196 223.628L324.986 226.476C325.027 226.541 325.091 226.587 325.165 226.604C325.238 226.621 325.315 226.607 325.379 226.566L328.399 224.629C328.431 224.608 328.459 224.579 328.481 224.546C328.503 224.513 328.518 224.476 328.525 224.437C328.533 224.398 328.533 224.358 328.525 224.318C328.517 224.279 328.502 224.242 328.48 224.209V224.209Z" fill="black"/>
<path opacity="0.1" d="M355.741 197.776L354.169 195.458C354.075 195.325 353.936 195.234 353.779 195.204C353.623 195.174 353.461 195.207 353.327 195.297L351 196.924C350.87 197.019 350.779 197.163 350.748 197.325C350.717 197.487 350.747 197.655 350.832 197.795L352.273 200.088C352.363 200.223 352.5 200.318 352.655 200.353C352.81 200.388 352.973 200.36 353.109 200.275L355.567 198.68C355.636 198.633 355.696 198.572 355.742 198.501C355.789 198.43 355.821 198.35 355.837 198.266C355.854 198.182 355.854 198.095 355.837 198.011C355.821 197.927 355.788 197.847 355.741 197.776Z" fill="black"/>
<path opacity="0.1" d="M351.294 200.966L349.721 198.641C349.627 198.506 349.487 198.414 349.329 198.384C349.17 198.354 349.007 198.388 348.873 198.48L346.552 200.107C346.421 200.201 346.329 200.344 346.297 200.506C346.264 200.669 346.293 200.838 346.378 200.978L347.819 203.271C347.908 203.409 348.045 203.506 348.202 203.542C348.359 203.578 348.524 203.55 348.661 203.464L351.119 201.863C351.187 201.816 351.246 201.756 351.292 201.685C351.338 201.614 351.37 201.535 351.386 201.452C351.403 201.368 351.403 201.283 351.387 201.199C351.371 201.116 351.339 201.036 351.294 200.966Z" fill="black"/>
<path opacity="0.1" d="M346.858 204.149L345.286 201.831C345.192 201.696 345.051 201.604 344.893 201.574C344.735 201.544 344.572 201.578 344.437 201.669L342.111 203.29C341.98 203.385 341.89 203.529 341.858 203.691C341.827 203.853 341.857 204.021 341.942 204.161L343.383 206.454C343.472 206.592 343.61 206.689 343.767 206.725C343.924 206.761 344.088 206.733 344.225 206.647L346.677 205.046C346.746 205 346.806 204.94 346.852 204.869C346.899 204.799 346.931 204.72 346.948 204.636C346.965 204.553 346.966 204.467 346.95 204.383C346.935 204.299 346.903 204.22 346.858 204.149V204.149Z" fill="black"/>
<path opacity="0.1" d="M342.41 207.332L340.838 205.014C340.744 204.881 340.604 204.79 340.448 204.76C340.291 204.73 340.129 204.763 339.996 204.852L337.669 206.473C337.538 206.568 337.448 206.712 337.416 206.874C337.385 207.036 337.415 207.205 337.5 207.345L338.941 209.663C339.03 209.799 339.167 209.895 339.322 209.931C339.477 209.967 339.64 209.941 339.777 209.856L342.235 208.261C342.308 208.215 342.371 208.153 342.42 208.079C342.469 208.006 342.502 207.923 342.519 207.836C342.535 207.749 342.534 207.659 342.515 207.572C342.496 207.485 342.461 207.403 342.41 207.332Z" fill="black"/>
<path opacity="0.1" d="M338.193 210.806L336.24 207.926C336.219 207.894 336.193 207.866 336.162 207.845C336.131 207.824 336.096 207.809 336.059 207.802C336.023 207.795 335.985 207.795 335.949 207.803C335.912 207.811 335.878 207.827 335.847 207.848L332.99 209.844C332.928 209.887 332.884 209.954 332.869 210.03C332.854 210.106 332.868 210.185 332.909 210.25L334.699 213.104C334.719 213.137 334.746 213.165 334.777 213.187C334.807 213.209 334.842 213.224 334.879 213.232C334.915 213.24 334.953 213.24 334.99 213.232C335.026 213.225 335.061 213.21 335.092 213.188L338.112 211.251C338.148 211.23 338.179 211.201 338.203 211.165C338.228 211.13 338.244 211.09 338.252 211.048C338.26 211.005 338.258 210.962 338.248 210.92C338.238 210.878 338.219 210.839 338.193 210.806Z" fill="black"/>
<path opacity="0.1" d="M334.231 213.627L332.279 210.741C332.234 210.678 332.167 210.636 332.093 210.623C332.018 210.609 331.942 210.626 331.879 210.67L329.028 212.659C328.966 212.703 328.922 212.771 328.907 212.848C328.892 212.925 328.907 213.005 328.947 213.072L330.738 215.919C330.779 215.985 330.843 216.031 330.916 216.048C330.99 216.065 331.067 216.051 331.131 216.01L334.15 214.073C334.187 214.051 334.218 214.022 334.242 213.987C334.266 213.952 334.283 213.912 334.291 213.869C334.298 213.827 334.297 213.783 334.287 213.741C334.277 213.7 334.258 213.661 334.231 213.627Z" fill="black"/>
<path opacity="0.1" d="M329.827 216.765L327.875 213.879C327.83 213.816 327.763 213.773 327.689 213.76C327.614 213.747 327.538 213.764 327.475 213.808L324.618 215.796C324.557 215.842 324.514 215.91 324.499 215.986C324.484 216.063 324.498 216.143 324.537 216.209L326.334 219.057C326.375 219.122 326.439 219.168 326.512 219.185C326.586 219.202 326.663 219.189 326.727 219.147L329.74 217.21C329.777 217.19 329.81 217.162 329.836 217.127C329.861 217.092 329.879 217.052 329.887 217.009C329.896 216.966 329.895 216.922 329.884 216.88C329.874 216.838 329.854 216.798 329.827 216.765V216.765Z" fill="black"/>
<path opacity="0.1" d="M325.56 219.838L323.608 216.959C323.586 216.926 323.559 216.899 323.528 216.877C323.496 216.856 323.461 216.841 323.424 216.834C323.387 216.827 323.348 216.827 323.312 216.835C323.275 216.844 323.24 216.859 323.208 216.881L320.351 218.876C320.29 218.921 320.248 218.988 320.234 219.064C320.22 219.14 320.235 219.218 320.276 219.283L322.067 222.13C322.086 222.164 322.112 222.194 322.142 222.217C322.173 222.24 322.207 222.256 322.244 222.264C322.281 222.273 322.319 222.273 322.356 222.266C322.394 222.258 322.429 222.243 322.46 222.221L325.473 220.284C325.511 220.264 325.543 220.236 325.569 220.201C325.594 220.166 325.612 220.126 325.62 220.083C325.629 220.04 325.628 219.996 325.617 219.953C325.607 219.911 325.587 219.872 325.56 219.838V219.838Z" fill="black"/>
<path opacity="0.1" d="M324.213 227.263L322.26 224.384C322.216 224.321 322.151 224.279 322.077 224.266C322.004 224.253 321.929 224.269 321.867 224.313L319.01 226.301C318.978 226.322 318.951 226.349 318.93 226.381C318.909 226.413 318.894 226.449 318.887 226.487C318.879 226.525 318.879 226.564 318.886 226.602C318.893 226.64 318.908 226.676 318.929 226.708L320.719 229.562C320.761 229.626 320.825 229.671 320.898 229.688C320.971 229.705 321.048 229.692 321.112 229.652L324.132 227.715C324.168 227.693 324.199 227.664 324.224 227.628C324.248 227.592 324.264 227.551 324.272 227.509C324.28 227.466 324.279 227.422 324.268 227.379C324.258 227.337 324.239 227.297 324.213 227.263V227.263Z" fill="black"/>
<path opacity="0.1" d="M319.946 230.324L317.993 227.444C317.972 227.412 317.946 227.385 317.915 227.363C317.884 227.342 317.849 227.328 317.812 227.32C317.776 227.313 317.738 227.314 317.702 227.321C317.665 227.329 317.631 227.345 317.6 227.367L314.743 229.362C314.711 229.383 314.684 229.41 314.663 229.442C314.642 229.474 314.627 229.51 314.62 229.548C314.612 229.585 314.612 229.625 314.619 229.663C314.626 229.7 314.641 229.737 314.662 229.769L316.452 232.616C316.493 232.681 316.557 232.728 316.631 232.745C316.704 232.761 316.781 232.748 316.845 232.706L319.865 230.769C319.901 230.748 319.932 230.719 319.956 230.684C319.981 230.649 319.997 230.609 320.005 230.566C320.013 230.524 320.011 230.48 320.001 230.438C319.991 230.396 319.972 230.357 319.946 230.324Z" fill="black"/>
<path opacity="0.1" d="M326.646 212.025L324.774 209.314C324.715 209.229 324.627 209.172 324.528 209.154C324.429 209.136 324.327 209.158 324.244 209.217L321.549 211.096C321.507 211.124 321.471 211.161 321.443 211.205C321.415 211.248 321.395 211.296 321.385 211.347C321.375 211.398 321.375 211.451 321.385 211.502C321.395 211.553 321.415 211.601 321.443 211.645L323.127 214.324C323.153 214.368 323.188 214.407 323.228 214.437C323.269 214.467 323.315 214.489 323.364 214.5C323.413 214.512 323.464 214.513 323.513 214.504C323.562 214.494 323.609 214.475 323.651 214.447L326.502 212.594C326.549 212.568 326.59 212.532 326.623 212.489C326.656 212.445 326.68 212.395 326.694 212.342C326.707 212.289 326.71 212.233 326.702 212.179C326.693 212.124 326.674 212.072 326.646 212.025V212.025Z" fill="black"/>
<path opacity="0.1" d="M322.379 215.086L320.538 212.374C320.51 212.331 320.474 212.295 320.432 212.266C320.39 212.238 320.343 212.218 320.294 212.208C320.245 212.199 320.194 212.199 320.145 212.21C320.096 212.221 320.049 212.242 320.008 212.271L317.313 214.182C317.271 214.21 317.235 214.247 317.207 214.289C317.179 214.332 317.16 214.38 317.15 214.43C317.14 214.481 317.14 214.533 317.15 214.583C317.16 214.634 317.179 214.682 317.207 214.724L318.891 217.41C318.946 217.497 319.032 217.558 319.129 217.581C319.227 217.604 319.33 217.587 319.415 217.533L322.266 215.68C322.314 215.651 322.356 215.613 322.388 215.566C322.421 215.519 322.443 215.466 322.454 215.41C322.464 215.353 322.463 215.295 322.45 215.239C322.437 215.184 322.413 215.131 322.379 215.086V215.086Z" fill="black"/>
<path opacity="0.1" d="M318.112 218.147L316.271 215.428C316.212 215.344 316.124 215.287 316.025 215.269C315.926 215.251 315.824 215.273 315.741 215.332L313.046 217.21C313.004 217.239 312.968 217.276 312.94 217.319C312.912 217.362 312.892 217.411 312.882 217.462C312.873 217.513 312.873 217.566 312.882 217.617C312.892 217.668 312.912 217.716 312.94 217.759L314.624 220.439C314.65 220.483 314.685 220.521 314.726 220.552C314.766 220.582 314.812 220.603 314.861 220.615C314.91 220.626 314.961 220.627 315.01 220.618C315.059 220.609 315.106 220.59 315.148 220.561L317.999 218.708C318.043 218.68 318.082 218.643 318.112 218.599C318.141 218.555 318.162 218.505 318.173 218.453C318.183 218.4 318.183 218.346 318.173 218.293C318.162 218.24 318.141 218.191 318.112 218.147V218.147Z" fill="black"/>
<path opacity="0.1" d="M313.901 221.284L311.948 218.398C311.904 218.336 311.839 218.294 311.765 218.281C311.692 218.267 311.617 218.284 311.555 218.327L308.698 220.316C308.635 220.361 308.592 220.429 308.577 220.506C308.562 220.583 308.576 220.663 308.617 220.729L310.407 223.577C310.449 223.641 310.513 223.686 310.586 223.703C310.659 223.719 310.736 223.707 310.8 223.667L313.82 221.73C313.858 221.71 313.891 221.682 313.916 221.647C313.942 221.612 313.959 221.571 313.967 221.528C313.975 221.485 313.973 221.44 313.962 221.398C313.95 221.356 313.929 221.317 313.901 221.284V221.284Z" fill="black"/>
<path opacity="0.1" d="M364.394 191.487L362.703 189.001C362.608 188.867 362.467 188.776 362.309 188.748C362.151 188.719 361.989 188.754 361.855 188.846L355.255 193.63C355.127 193.727 355.039 193.869 355.009 194.03C354.979 194.191 355.009 194.357 355.093 194.496L356.683 197.04C356.729 197.11 356.788 197.17 356.856 197.217C356.925 197.264 357.002 197.297 357.082 197.313C357.163 197.329 357.245 197.329 357.326 197.312C357.406 197.295 357.483 197.261 357.551 197.214L364.251 192.365C364.379 192.266 364.465 192.119 364.492 191.956C364.519 191.792 364.484 191.624 364.394 191.487V191.487Z" fill="black"/>
<path opacity="0.1" d="M321.281 222.802L319.21 219.774C319.188 219.741 319.161 219.714 319.129 219.692C319.098 219.671 319.062 219.657 319.025 219.65C318.987 219.644 318.949 219.645 318.912 219.654C318.876 219.663 318.841 219.68 318.81 219.703L311.686 224.868C311.625 224.911 311.584 224.977 311.57 225.052C311.556 225.127 311.571 225.205 311.611 225.268L313.558 228.387C313.579 228.421 313.606 228.45 313.638 228.472C313.669 228.495 313.705 228.51 313.743 228.518C313.781 228.526 313.82 228.526 313.858 228.518C313.896 228.51 313.931 228.494 313.963 228.471L321.206 223.222C321.269 223.176 321.313 223.106 321.327 223.028C321.341 222.949 321.324 222.868 321.281 222.802V222.802Z" fill="black"/>
<path opacity="0.1" d="M343.945 199.642L342.036 196.749C341.993 196.686 341.928 196.642 341.855 196.628C341.781 196.613 341.705 196.629 341.643 196.672L325.822 207.725C325.76 207.769 325.717 207.836 325.702 207.912C325.687 207.988 325.701 208.067 325.741 208.132L327.694 211.231C327.715 211.265 327.742 211.294 327.774 211.317C327.806 211.339 327.842 211.355 327.879 211.363C327.917 211.371 327.956 211.37 327.994 211.362C328.032 211.354 328.068 211.338 328.099 211.315L343.87 200.055C343.901 200.033 343.928 200.005 343.949 199.972C343.969 199.939 343.983 199.903 343.99 199.864C343.997 199.826 343.997 199.787 343.989 199.748C343.981 199.71 343.966 199.674 343.945 199.642V199.642Z" fill="black"/>
</g>
<path d="M370.47 200.288L368.898 197.963C368.804 197.829 368.663 197.737 368.505 197.706C368.347 197.676 368.184 197.711 368.049 197.802L365.729 199.429C365.597 199.523 365.505 199.666 365.473 199.829C365.44 199.991 365.469 200.16 365.554 200.301L366.995 202.593C367.084 202.731 367.222 202.829 367.379 202.865C367.535 202.901 367.7 202.873 367.837 202.787L370.295 201.185C370.364 201.138 370.423 201.078 370.469 201.007C370.514 200.937 370.547 200.858 370.563 200.774C370.579 200.691 370.579 200.605 370.563 200.521C370.547 200.438 370.515 200.359 370.47 200.288Z" fill="#464A5F"/>
<path d="M366.265 203.283L364.693 200.965C364.599 200.832 364.46 200.741 364.303 200.711C364.146 200.681 363.985 200.715 363.851 200.804L361.524 202.425C361.392 202.519 361.301 202.662 361.268 202.824C361.236 202.987 361.265 203.156 361.349 203.296L362.79 205.588C362.88 205.727 363.017 205.824 363.174 205.86C363.331 205.896 363.495 205.868 363.633 205.782L366.09 204.187C366.16 204.14 366.22 204.08 366.266 204.008C366.313 203.937 366.345 203.857 366.361 203.773C366.377 203.689 366.377 203.602 366.361 203.518C366.344 203.434 366.312 203.354 366.265 203.283Z" fill="#464A5F"/>
<path d="M361.898 206.435L360.326 204.117C360.232 203.982 360.092 203.89 359.933 203.86C359.775 203.83 359.612 203.864 359.478 203.955L357.157 205.582C357.026 205.677 356.934 205.82 356.902 205.982C356.869 206.144 356.898 206.313 356.983 206.454L358.424 208.746C358.514 208.883 358.652 208.979 358.809 209.014C358.965 209.049 359.129 209.02 359.266 208.933L361.724 207.339C361.793 207.292 361.853 207.231 361.899 207.16C361.946 207.089 361.978 207.009 361.994 206.925C362.011 206.84 362.011 206.754 361.994 206.67C361.978 206.585 361.945 206.506 361.898 206.435Z" fill="#464A5F"/>
<path d="M357.444 209.617L355.872 207.293C355.778 207.16 355.639 207.069 355.482 207.039C355.325 207.009 355.164 207.042 355.03 207.132L352.703 208.759C352.635 208.807 352.576 208.868 352.531 208.94C352.485 209.011 352.454 209.091 352.439 209.176C352.424 209.26 352.425 209.346 352.443 209.43C352.46 209.513 352.493 209.592 352.541 209.663L353.982 211.955C354.071 212.093 354.208 212.19 354.365 212.227C354.522 212.263 354.687 212.235 354.824 212.148L357.276 210.547C357.348 210.5 357.411 210.437 357.459 210.364C357.507 210.291 357.54 210.208 357.556 210.12C357.572 210.033 357.57 209.943 357.551 209.857C357.531 209.77 357.495 209.689 357.444 209.617Z" fill="#464A5F"/>
<path d="M353.003 212.801L351.43 210.483C351.337 210.35 351.197 210.259 351.04 210.229C350.884 210.199 350.722 210.232 350.588 210.322L348.261 211.942C348.131 212.038 348.041 212.181 348.009 212.343C347.978 212.505 348.008 212.674 348.093 212.814L349.528 215.106C349.617 215.244 349.754 215.342 349.911 215.378C350.068 215.414 350.233 215.386 350.37 215.3L352.828 213.698C352.896 213.652 352.955 213.591 353.001 213.52C353.047 213.45 353.079 213.371 353.096 213.287C353.112 213.204 353.112 213.118 353.096 213.035C353.08 212.951 353.048 212.872 353.003 212.801Z" fill="#464A5F"/>
<path d="M348.754 216.274L346.802 213.395C346.781 213.363 346.754 213.335 346.723 213.314C346.692 213.293 346.657 213.278 346.621 213.271C346.584 213.264 346.547 213.264 346.51 213.272C346.474 213.28 346.439 213.295 346.409 213.317L343.551 215.312C343.52 215.333 343.493 215.36 343.472 215.392C343.45 215.424 343.436 215.46 343.428 215.498C343.421 215.536 343.42 215.575 343.428 215.613C343.435 215.651 343.449 215.687 343.47 215.719L345.261 218.566C345.302 218.632 345.366 218.678 345.439 218.695C345.513 218.712 345.59 218.698 345.654 218.657L348.673 216.72C348.709 216.699 348.741 216.669 348.765 216.634C348.789 216.599 348.806 216.559 348.813 216.517C348.821 216.474 348.82 216.431 348.81 216.389C348.799 216.347 348.78 216.308 348.754 216.274V216.274Z" fill="#464A5F"/>
<path d="M344.312 219.457L342.36 216.578C342.338 216.546 342.311 216.518 342.28 216.497C342.248 216.475 342.213 216.461 342.176 216.453C342.139 216.446 342.1 216.447 342.063 216.455C342.027 216.463 341.992 216.478 341.96 216.5L339.109 218.495C339.078 218.516 339.051 218.544 339.03 218.575C339.009 218.607 338.994 218.643 338.986 218.681C338.979 218.719 338.979 218.758 338.986 218.796C338.993 218.834 339.007 218.87 339.028 218.902L340.819 221.756C340.839 221.789 340.865 221.817 340.896 221.839C340.927 221.86 340.962 221.876 340.998 221.884C341.035 221.891 341.073 221.892 341.109 221.884C341.146 221.877 341.181 221.862 341.212 221.84L344.231 219.903C344.267 219.881 344.297 219.851 344.321 219.816C344.344 219.781 344.361 219.741 344.368 219.699C344.376 219.657 344.375 219.614 344.365 219.572C344.356 219.53 344.338 219.491 344.312 219.457V219.457Z" fill="#464A5F"/>
<path d="M340.376 222.279L338.424 219.393C338.38 219.331 338.314 219.288 338.241 219.275C338.168 219.262 338.092 219.279 338.031 219.322L335.173 221.285C335.111 221.329 335.067 221.397 335.052 221.474C335.037 221.551 335.052 221.632 335.092 221.698L336.883 224.545C336.925 224.61 336.989 224.655 337.062 224.671C337.135 224.688 337.212 224.675 337.276 224.636L340.295 222.699C340.328 222.677 340.356 222.649 340.377 222.616C340.399 222.583 340.414 222.546 340.422 222.507C340.43 222.468 340.429 222.427 340.421 222.388C340.414 222.349 340.398 222.312 340.376 222.279V222.279Z" fill="#464A5F"/>
<path d="M335.972 225.436L334.019 222.576C333.975 222.514 333.91 222.472 333.837 222.458C333.763 222.445 333.688 222.462 333.626 222.505L330.769 224.494C330.737 224.515 330.71 224.543 330.689 224.575C330.668 224.608 330.653 224.644 330.645 224.683C330.638 224.721 330.638 224.761 330.645 224.799C330.652 224.838 330.667 224.874 330.688 224.907L332.478 227.754C332.52 227.818 332.584 227.864 332.658 227.88C332.731 227.897 332.807 227.884 332.871 227.845L335.891 225.908C335.931 225.887 335.966 225.857 335.993 225.82C336.02 225.782 336.039 225.739 336.047 225.693C336.054 225.647 336.052 225.6 336.039 225.556C336.026 225.511 336.003 225.47 335.972 225.436V225.436Z" fill="#464A5F"/>
<path d="M331.705 228.49L329.752 225.611C329.732 225.579 329.705 225.551 329.674 225.53C329.643 225.509 329.608 225.494 329.571 225.487C329.535 225.48 329.497 225.48 329.461 225.488C329.424 225.496 329.39 225.511 329.359 225.533L326.502 227.528C326.471 227.549 326.444 227.576 326.422 227.608C326.401 227.64 326.386 227.676 326.379 227.714C326.371 227.752 326.371 227.791 326.378 227.829C326.386 227.867 326.4 227.903 326.421 227.935L328.211 230.783C328.231 230.816 328.257 230.844 328.288 230.867C328.318 230.889 328.353 230.905 328.389 230.914C328.426 230.922 328.464 230.923 328.501 230.916C328.538 230.909 328.573 230.894 328.604 230.873L331.624 228.936C331.66 228.915 331.691 228.885 331.716 228.85C331.74 228.815 331.756 228.775 331.764 228.733C331.772 228.69 331.771 228.647 331.76 228.605C331.75 228.563 331.731 228.524 331.705 228.49V228.49Z" fill="#464A5F"/>
<path d="M327.438 231.551L325.485 228.665C325.441 228.602 325.376 228.56 325.303 228.547C325.229 228.534 325.154 228.55 325.092 228.594L322.235 230.582C322.172 230.627 322.129 230.695 322.114 230.772C322.099 230.849 322.113 230.929 322.154 230.996L323.944 233.843C323.986 233.907 324.05 233.952 324.123 233.969C324.197 233.986 324.273 233.973 324.337 233.933L327.357 231.996C327.393 231.975 327.424 231.946 327.449 231.911C327.473 231.876 327.489 231.835 327.497 231.793C327.505 231.751 327.504 231.707 327.493 231.665C327.483 231.623 327.464 231.584 327.438 231.551V231.551Z" fill="#464A5F"/>
<path d="M323.171 234.605L321.218 231.725C321.197 231.693 321.171 231.666 321.14 231.644C321.109 231.623 321.074 231.609 321.037 231.601C321.001 231.594 320.963 231.594 320.927 231.602C320.89 231.61 320.856 231.626 320.825 231.648L317.968 233.643C317.936 233.664 317.909 233.691 317.888 233.723C317.867 233.755 317.852 233.791 317.845 233.829C317.837 233.866 317.837 233.906 317.844 233.944C317.851 233.981 317.866 234.018 317.887 234.05L319.677 236.897C319.697 236.93 319.723 236.959 319.753 236.981C319.784 237.004 319.819 237.02 319.855 237.028C319.892 237.037 319.93 237.037 319.967 237.03C320.004 237.023 320.039 237.009 320.07 236.987L323.09 235.05C323.126 235.029 323.157 235 323.181 234.965C323.206 234.93 323.222 234.89 323.23 234.847C323.238 234.805 323.236 234.761 323.226 234.719C323.216 234.677 323.197 234.638 323.171 234.605V234.605Z" fill="#464A5F"/>
<path d="M367.656 196.104L366.084 193.779C365.99 193.646 365.851 193.555 365.694 193.525C365.538 193.495 365.376 193.529 365.242 193.618L362.915 195.245C362.785 195.34 362.694 195.484 362.663 195.646C362.632 195.808 362.662 195.977 362.747 196.117L364.182 198.409C364.271 198.547 364.408 198.645 364.565 198.681C364.722 198.717 364.886 198.689 365.024 198.602L367.482 197.001C367.55 196.954 367.609 196.894 367.655 196.823C367.701 196.753 367.733 196.673 367.749 196.59C367.766 196.507 367.766 196.421 367.75 196.337C367.734 196.254 367.702 196.175 367.656 196.104Z" fill="#464A5F"/>
<path d="M361.512 186.897L359.94 184.579C359.846 184.446 359.706 184.355 359.55 184.325C359.393 184.295 359.231 184.328 359.098 184.417L356.771 186.038C356.64 186.133 356.55 186.277 356.518 186.439C356.487 186.601 356.517 186.77 356.602 186.91L358.043 189.202C358.132 189.338 358.269 189.434 358.424 189.47C358.58 189.507 358.742 189.48 358.879 189.395L361.337 187.801C361.407 187.754 361.466 187.693 361.513 187.622C361.559 187.551 361.592 187.471 361.608 187.387C361.624 187.302 361.624 187.216 361.608 187.132C361.591 187.047 361.559 186.968 361.512 186.897Z" fill="#464A5F"/>
<path d="M363.47 199.08L361.898 196.75C361.804 196.617 361.665 196.526 361.508 196.496C361.352 196.466 361.19 196.499 361.056 196.588L358.729 198.209C358.599 198.304 358.508 198.448 358.477 198.61C358.446 198.772 358.476 198.94 358.561 199.08L360.002 201.373C360.091 201.509 360.227 201.605 360.383 201.641C360.538 201.677 360.701 201.651 360.838 201.566L363.296 199.971C363.432 199.877 363.528 199.73 363.56 199.563C363.593 199.396 363.561 199.223 363.47 199.08Z" fill="#464A5F"/>
<path d="M359.079 202.225L357.532 199.907C357.438 199.774 357.298 199.683 357.142 199.653C356.985 199.623 356.823 199.656 356.69 199.745L354.363 201.366C354.23 201.461 354.139 201.606 354.108 201.77C354.076 201.934 354.107 202.104 354.194 202.244L355.629 204.536C355.719 204.674 355.857 204.77 356.014 204.804C356.171 204.839 356.335 204.81 356.471 204.724L358.929 203.129C358.997 203.08 359.054 203.018 359.098 202.945C359.142 202.873 359.172 202.793 359.186 202.709C359.2 202.625 359.198 202.539 359.179 202.456C359.161 202.373 359.127 202.294 359.079 202.225Z" fill="#464A5F"/>
<path d="M354.637 205.414L353.065 203.09C352.971 202.955 352.83 202.863 352.672 202.833C352.514 202.803 352.351 202.837 352.216 202.928L349.896 204.556C349.764 204.65 349.672 204.793 349.64 204.955C349.607 205.117 349.636 205.286 349.721 205.427L351.162 207.719C351.251 207.858 351.389 207.955 351.546 207.991C351.702 208.027 351.867 207.999 352.004 207.913L354.462 206.312C354.531 206.265 354.59 206.204 354.636 206.134C354.682 206.063 354.714 205.984 354.73 205.901C354.746 205.817 354.746 205.731 354.73 205.648C354.714 205.564 354.683 205.485 354.637 205.414Z" fill="#464A5F"/>
<path d="M357.426 190.041L355.853 187.71C355.759 187.577 355.62 187.486 355.463 187.456C355.307 187.426 355.145 187.459 355.011 187.549L352.684 189.169C352.554 189.265 352.463 189.408 352.432 189.57C352.401 189.732 352.431 189.901 352.516 190.041L353.957 192.333C354.046 192.47 354.182 192.566 354.338 192.602C354.493 192.638 354.656 192.611 354.793 192.527L357.251 190.932C357.388 190.837 357.483 190.691 357.515 190.524C357.548 190.357 357.516 190.183 357.426 190.041V190.041Z" fill="#464A5F"/>
<path d="M353.034 193.192L351.462 190.867C351.368 190.734 351.228 190.643 351.072 190.613C350.915 190.583 350.753 190.616 350.62 190.706L348.293 192.333C348.161 192.427 348.069 192.57 348.037 192.733C348.004 192.895 348.033 193.064 348.118 193.205L349.559 195.497C349.648 195.635 349.786 195.732 349.943 195.769C350.099 195.805 350.264 195.777 350.401 195.69L352.859 194.089C352.928 194.042 352.987 193.982 353.033 193.911C353.078 193.841 353.11 193.761 353.127 193.678C353.143 193.595 353.143 193.509 353.127 193.425C353.111 193.342 353.079 193.262 353.034 193.192Z" fill="#464A5F"/>
<path d="M348.592 196.375L347.02 194.057C346.926 193.922 346.785 193.83 346.627 193.8C346.469 193.77 346.306 193.804 346.171 193.896L343.851 195.516C343.719 195.611 343.628 195.754 343.595 195.916C343.563 196.078 343.592 196.247 343.676 196.388L345.117 198.687C345.206 198.825 345.344 198.922 345.501 198.958C345.658 198.994 345.822 198.967 345.959 198.88L348.411 197.279C348.481 197.233 348.541 197.172 348.588 197.101C348.635 197.031 348.668 196.951 348.685 196.866C348.702 196.782 348.702 196.695 348.686 196.611C348.67 196.527 348.638 196.446 348.592 196.375V196.375Z" fill="#464A5F"/>
<path d="M350.189 208.597L348.617 206.279C348.523 206.146 348.383 206.055 348.227 206.025C348.07 205.995 347.909 206.029 347.775 206.118L345.448 207.726C345.317 207.821 345.227 207.965 345.196 208.127C345.164 208.289 345.194 208.457 345.279 208.597L346.721 210.889C346.81 211.026 346.946 211.122 347.101 211.158C347.257 211.194 347.42 211.167 347.556 211.083L350.014 209.482C350.149 209.387 350.243 209.242 350.276 209.076C350.309 208.911 350.277 208.739 350.189 208.597V208.597Z" fill="#464A5F"/>
<path d="M345.747 211.78L344.175 209.462C344.081 209.329 343.942 209.239 343.785 209.209C343.628 209.179 343.467 209.212 343.333 209.301L341.006 210.954C340.874 211.048 340.783 211.191 340.75 211.354C340.718 211.516 340.747 211.685 340.831 211.826L342.272 214.118C342.362 214.256 342.499 214.353 342.656 214.39C342.813 214.426 342.977 214.398 343.115 214.311L345.572 212.717C345.646 212.67 345.71 212.608 345.759 212.534C345.809 212.46 345.843 212.376 345.859 212.288C345.876 212.2 345.874 212.11 345.855 212.022C345.836 211.935 345.799 211.852 345.747 211.78Z" fill="#464A5F"/>
<path d="M341.499 215.254L339.547 212.375C339.526 212.343 339.499 212.315 339.468 212.294C339.437 212.273 339.402 212.258 339.366 212.251C339.329 212.244 339.292 212.244 339.255 212.252C339.219 212.26 339.184 212.275 339.154 212.297L336.321 214.292C336.29 214.313 336.263 214.34 336.242 214.372C336.221 214.404 336.206 214.44 336.198 214.478C336.191 214.516 336.19 214.555 336.198 214.593C336.205 214.631 336.219 214.667 336.24 214.699L338.031 217.546C338.05 217.579 338.076 217.608 338.107 217.631C338.137 217.653 338.172 217.669 338.209 217.678C338.245 217.686 338.283 217.687 338.32 217.68C338.357 217.673 338.392 217.658 338.424 217.637L341.443 215.7C341.477 215.676 341.505 215.645 341.526 215.608C341.547 215.572 341.561 215.532 341.567 215.49C341.572 215.448 341.569 215.405 341.557 215.365C341.545 215.324 341.526 215.287 341.499 215.254V215.254Z" fill="#464A5F"/>
<path d="M337.569 218.056L335.616 215.17C335.571 215.107 335.505 215.065 335.43 215.052C335.356 215.039 335.279 215.055 335.217 215.099L332.36 217.088C332.298 217.133 332.256 217.201 332.241 217.278C332.226 217.355 332.239 217.434 332.279 217.501L334.075 220.348C334.116 220.414 334.18 220.46 334.254 220.477C334.327 220.494 334.404 220.48 334.468 220.439L337.481 218.502C337.519 218.482 337.552 218.453 337.577 218.419C337.603 218.384 337.62 218.344 337.629 218.301C337.637 218.258 337.636 218.214 337.626 218.171C337.615 218.129 337.596 218.09 337.569 218.056V218.056Z" fill="#464A5F"/>
<path d="M333.159 221.233L331.206 218.347C331.162 218.285 331.097 218.243 331.023 218.229C330.95 218.216 330.875 218.233 330.813 218.276L327.956 220.265C327.893 220.309 327.85 220.377 327.834 220.454C327.819 220.531 327.834 220.612 327.875 220.678L329.665 223.525C329.707 223.589 329.771 223.635 329.844 223.651C329.917 223.668 329.994 223.655 330.058 223.616L333.077 221.679C333.116 221.659 333.149 221.631 333.174 221.596C333.2 221.561 333.217 221.52 333.225 221.477C333.233 221.434 333.231 221.389 333.22 221.347C333.208 221.305 333.187 221.266 333.159 221.233V221.233Z" fill="#464A5F"/>
<path d="M328.898 224.287L326.964 221.407C326.943 221.375 326.916 221.348 326.885 221.327C326.854 221.305 326.819 221.291 326.783 221.283C326.746 221.276 326.709 221.277 326.672 221.285C326.636 221.293 326.601 221.308 326.571 221.33L323.714 223.325C323.651 223.368 323.608 223.435 323.593 223.511C323.578 223.587 323.592 223.666 323.632 223.732L325.423 226.579C325.464 226.645 325.528 226.691 325.601 226.708C325.675 226.725 325.752 226.711 325.816 226.67L328.835 224.733C328.871 224.71 328.901 224.68 328.924 224.644C328.948 224.608 328.963 224.568 328.969 224.525C328.975 224.482 328.971 224.439 328.959 224.398C328.947 224.357 328.926 224.319 328.898 224.287V224.287Z" fill="#464A5F"/>
<path d="M356.153 197.86L354.587 195.536C354.493 195.401 354.352 195.309 354.194 195.279C354.036 195.249 353.873 195.283 353.739 195.374L351.412 197.001C351.281 197.097 351.191 197.24 351.16 197.402C351.128 197.565 351.158 197.733 351.243 197.873L352.684 200.165C352.775 200.302 352.912 200.398 353.069 200.433C353.226 200.468 353.39 200.439 353.527 200.352L355.978 198.758C356.047 198.711 356.106 198.65 356.152 198.58C356.198 198.509 356.23 198.43 356.246 198.346C356.262 198.263 356.262 198.177 356.246 198.094C356.23 198.01 356.199 197.931 356.153 197.86V197.86Z" fill="#464A5F"/>
<path d="M351.711 201.043L350.139 198.725C350.046 198.591 349.907 198.499 349.75 198.468C349.594 198.436 349.431 198.469 349.297 198.557L346.97 200.184C346.839 200.28 346.749 200.423 346.718 200.585C346.686 200.748 346.716 200.916 346.801 201.056L348.243 203.348C348.332 203.485 348.468 203.581 348.623 203.617C348.779 203.653 348.942 203.626 349.079 203.542L351.536 201.941C351.605 201.894 351.664 201.833 351.71 201.763C351.756 201.692 351.788 201.613 351.804 201.529C351.82 201.446 351.82 201.36 351.804 201.277C351.789 201.193 351.757 201.114 351.711 201.043Z" fill="#464A5F"/>
<path d="M347.27 204.226L345.679 201.915C345.585 201.78 345.444 201.688 345.286 201.658C345.128 201.628 344.965 201.662 344.831 201.753L342.56 203.367C342.428 203.462 342.337 203.605 342.304 203.767C342.272 203.929 342.3 204.098 342.385 204.239L343.826 206.531C343.915 206.669 344.053 206.767 344.21 206.803C344.367 206.839 344.531 206.811 344.668 206.725L347.126 205.13C347.193 205.081 347.25 205.018 347.294 204.946C347.337 204.873 347.366 204.793 347.38 204.709C347.393 204.625 347.39 204.539 347.371 204.456C347.352 204.373 347.318 204.295 347.27 204.226V204.226Z" fill="#464A5F"/>
<path d="M342.822 207.409L341.25 205.091C341.156 204.958 341.016 204.867 340.86 204.837C340.703 204.807 340.541 204.841 340.408 204.93L338.081 206.551C337.95 206.646 337.86 206.789 337.829 206.952C337.797 207.114 337.827 207.282 337.912 207.422L339.353 209.714C339.442 209.851 339.579 209.947 339.734 209.983C339.89 210.019 340.052 209.992 340.189 209.908L342.647 208.313C342.717 208.266 342.776 208.206 342.823 208.134C342.869 208.063 342.902 207.983 342.918 207.899C342.934 207.815 342.934 207.728 342.917 207.644C342.901 207.56 342.868 207.48 342.822 207.409Z" fill="#464A5F"/>
<path d="M338.579 210.883L336.627 208.004C336.605 207.971 336.578 207.944 336.547 207.922C336.515 207.901 336.48 207.886 336.443 207.879C336.406 207.872 336.367 207.872 336.331 207.88C336.294 207.888 336.259 207.904 336.227 207.926L333.37 209.921C333.308 209.965 333.265 210.031 333.25 210.107C333.234 210.183 333.249 210.263 333.289 210.328L335.08 213.182C335.1 213.215 335.127 213.243 335.159 213.265C335.19 213.287 335.225 213.302 335.262 213.31C335.299 213.318 335.338 213.318 335.375 213.31C335.412 213.303 335.447 213.287 335.479 213.266L338.492 211.329C338.529 211.308 338.561 211.279 338.586 211.244C338.61 211.21 338.628 211.169 338.636 211.127C338.644 211.085 338.643 211.041 338.634 210.999C338.624 210.957 338.605 210.917 338.579 210.883Z" fill="#464A5F"/>
<path d="M334.643 213.705L332.691 210.825C332.67 210.793 332.643 210.765 332.612 210.744C332.581 210.723 332.546 210.708 332.51 210.701C332.473 210.694 332.436 210.694 332.399 210.702C332.363 210.71 332.328 210.725 332.298 210.747L329.459 212.736C329.397 212.781 329.353 212.849 329.338 212.926C329.323 213.003 329.337 213.083 329.378 213.149L331.168 215.997C331.21 216.061 331.275 216.106 331.348 216.123C331.421 216.139 331.497 216.127 331.561 216.087L334.581 214.15C334.616 214.127 334.645 214.097 334.668 214.061C334.69 214.025 334.705 213.984 334.711 213.942C334.717 213.9 334.714 213.857 334.702 213.816C334.69 213.775 334.67 213.737 334.643 213.705V213.705Z" fill="#464A5F"/>
<path d="M330.239 216.862L328.286 213.976C328.241 213.913 328.174 213.871 328.1 213.857C328.026 213.844 327.949 213.861 327.887 213.905L325.036 215.893C324.973 215.938 324.93 216.006 324.915 216.083C324.899 216.16 324.914 216.24 324.955 216.307L326.745 219.154C326.786 219.219 326.85 219.266 326.924 219.283C326.997 219.299 327.074 219.286 327.138 219.244L330.157 217.307C330.194 217.286 330.225 217.257 330.249 217.222C330.274 217.187 330.29 217.147 330.298 217.104C330.306 217.062 330.304 217.018 330.294 216.976C330.284 216.934 330.265 216.895 330.239 216.862V216.862Z" fill="#464A5F"/>
<path d="M325.972 219.916L324.019 217.036C323.998 217.004 323.97 216.976 323.939 216.955C323.907 216.934 323.872 216.919 323.835 216.912C323.798 216.905 323.76 216.905 323.723 216.913C323.686 216.921 323.651 216.937 323.62 216.959L320.769 218.954C320.737 218.975 320.71 219.002 320.689 219.034C320.668 219.066 320.653 219.102 320.645 219.14C320.638 219.178 320.638 219.217 320.645 219.255C320.652 219.293 320.667 219.329 320.688 219.361L322.478 222.215C322.498 222.247 322.524 222.275 322.555 222.297C322.586 222.319 322.621 222.334 322.657 222.342C322.694 222.35 322.732 222.35 322.768 222.343C322.805 222.335 322.84 222.32 322.871 222.298L325.89 220.361C325.926 220.339 325.956 220.31 325.98 220.275C326.004 220.24 326.02 220.2 326.028 220.158C326.035 220.115 326.034 220.072 326.025 220.031C326.015 219.989 325.997 219.95 325.972 219.916V219.916Z" fill="#464A5F"/>
<path d="M324.631 227.348L322.678 224.461C322.633 224.399 322.566 224.356 322.492 224.343C322.418 224.33 322.341 224.347 322.279 224.39L319.421 226.379C319.359 226.424 319.315 226.492 319.3 226.569C319.285 226.646 319.3 226.726 319.34 226.792L321.131 229.64C321.173 229.704 321.237 229.749 321.31 229.766C321.383 229.782 321.46 229.77 321.524 229.73L324.543 227.793C324.581 227.773 324.614 227.745 324.639 227.71C324.665 227.675 324.682 227.635 324.691 227.592C324.699 227.549 324.698 227.505 324.688 227.463C324.677 227.42 324.658 227.381 324.631 227.348V227.348Z" fill="#464A5F"/>
<path d="M320.363 230.402L318.411 227.522C318.39 227.49 318.362 227.462 318.331 227.441C318.299 227.419 318.264 227.405 318.227 227.397C318.19 227.39 318.152 227.391 318.115 227.399C318.078 227.407 318.043 227.422 318.012 227.444L315.154 229.439C315.092 229.483 315.049 229.55 315.034 229.626C315.019 229.702 315.033 229.781 315.073 229.846L316.864 232.694C316.884 232.727 316.911 232.756 316.942 232.778C316.973 232.801 317.008 232.817 317.045 232.825C317.082 232.834 317.121 232.834 317.158 232.827C317.195 232.82 317.231 232.806 317.263 232.784L320.276 230.847C320.314 230.827 320.347 230.799 320.372 230.764C320.398 230.729 320.415 230.689 320.424 230.646C320.432 230.603 320.431 230.559 320.421 230.517C320.41 230.474 320.391 230.435 320.363 230.402V230.402Z" fill="#464A5F"/>
<path d="M327.057 212.11L325.217 209.392C325.158 209.307 325.07 209.25 324.971 209.232C324.872 209.214 324.77 209.237 324.687 209.295L321.973 211.174C321.889 211.233 321.832 211.323 321.812 211.426C321.792 211.528 321.812 211.635 321.867 211.723L323.551 214.409C323.607 214.496 323.694 214.557 323.793 214.579C323.892 214.601 323.996 214.581 324.081 214.525L326.926 212.672C326.972 212.645 327.012 212.609 327.043 212.566C327.075 212.523 327.098 212.473 327.11 212.421C327.122 212.368 327.124 212.313 327.115 212.26C327.106 212.206 327.086 212.155 327.057 212.11V212.11Z" fill="#464A5F"/>
<path d="M322.79 215.164L320.95 212.452C320.922 212.409 320.886 212.372 320.844 212.344C320.802 212.315 320.755 212.296 320.706 212.286C320.656 212.276 320.606 212.277 320.557 212.288C320.508 212.298 320.461 212.319 320.42 212.349L317.725 214.234C317.642 214.292 317.584 214.381 317.564 214.483C317.544 214.584 317.564 214.69 317.619 214.776L319.303 217.462C319.359 217.549 319.446 217.611 319.544 217.634C319.643 217.657 319.747 217.639 319.833 217.585L322.684 215.732C322.728 215.702 322.765 215.663 322.793 215.619C322.822 215.574 322.842 215.524 322.852 215.471C322.862 215.418 322.861 215.363 322.851 215.311C322.84 215.258 322.82 215.208 322.79 215.164V215.164Z" fill="#464A5F"/>
<path d="M318.523 218.224L316.652 215.506C316.594 215.422 316.507 215.365 316.409 215.347C316.311 215.329 316.21 215.351 316.128 215.409L313.426 217.288C313.343 217.347 313.285 217.437 313.265 217.54C313.246 217.643 313.265 217.749 313.32 217.837L315.005 220.523C315.061 220.61 315.148 220.671 315.247 220.693C315.346 220.715 315.45 220.695 315.535 220.639L318.386 218.786C318.432 218.76 318.473 218.724 318.505 218.681C318.537 218.638 318.561 218.589 318.574 218.536C318.586 218.483 318.589 218.428 318.58 218.375C318.571 218.321 318.552 218.27 318.523 218.224V218.224Z" fill="#464A5F"/>
<path d="M314.319 221.369L312.366 218.483C312.321 218.42 312.255 218.377 312.18 218.364C312.106 218.351 312.029 218.368 311.967 218.412L309.11 220.4C309.048 220.446 309.006 220.514 308.992 220.591C308.978 220.668 308.993 220.748 309.035 220.813L310.825 223.661C310.866 223.726 310.93 223.772 311.004 223.789C311.077 223.806 311.154 223.793 311.218 223.751L314.238 221.814C314.274 221.793 314.305 221.764 314.329 221.729C314.354 221.694 314.37 221.653 314.378 221.611C314.386 221.569 314.384 221.525 314.374 221.483C314.364 221.441 314.345 221.402 314.319 221.369V221.369Z" fill="#464A5F"/>
<path d="M364.812 191.584L363.146 189.092C363.051 188.958 362.91 188.867 362.752 188.838C362.594 188.81 362.431 188.845 362.298 188.937L355.66 193.721C355.532 193.817 355.444 193.96 355.414 194.121C355.384 194.281 355.414 194.448 355.498 194.586L357.095 197.13C357.141 197.201 357.2 197.261 357.268 197.308C357.336 197.355 357.413 197.388 357.494 197.404C357.574 197.42 357.657 197.42 357.737 197.403C357.818 197.386 357.894 197.352 357.962 197.305L364.656 192.456C364.784 192.359 364.872 192.214 364.901 192.052C364.93 191.89 364.898 191.723 364.812 191.584Z" fill="#464A5F"/>
<path d="M321.692 222.88L319.621 219.851C319.6 219.819 319.572 219.791 319.541 219.77C319.509 219.749 319.473 219.734 319.436 219.728C319.399 219.721 319.36 219.722 319.324 219.731C319.287 219.741 319.252 219.757 319.222 219.78L312.097 224.946C312.036 224.99 311.994 225.057 311.98 225.133C311.966 225.209 311.981 225.288 312.023 225.353L313.975 228.465C313.996 228.498 314.023 228.527 314.055 228.55C314.087 228.572 314.123 228.588 314.161 228.596C314.198 228.604 314.237 228.604 314.275 228.595C314.313 228.587 314.349 228.571 314.381 228.549L321.623 223.299C321.686 223.253 321.728 223.182 321.741 223.104C321.754 223.025 321.736 222.945 321.692 222.88V222.88Z" fill="#464A5F"/>
<path d="M344.356 199.72L342.485 196.846C342.442 196.782 342.376 196.737 342.301 196.721C342.227 196.705 342.149 196.72 342.085 196.762L326.271 207.803C326.24 207.824 326.213 207.851 326.191 207.883C326.17 207.915 326.155 207.951 326.148 207.989C326.14 208.027 326.14 208.066 326.147 208.104C326.155 208.142 326.169 208.178 326.19 208.21L328.136 211.309C328.157 211.343 328.184 211.372 328.216 211.395C328.248 211.417 328.284 211.433 328.322 211.441C328.36 211.448 328.399 211.448 328.437 211.44C328.474 211.432 328.51 211.416 328.542 211.393L344.313 200.133C344.371 200.084 344.408 200.013 344.416 199.935C344.424 199.858 344.403 199.781 344.356 199.72V199.72Z" fill="#464A5F"/>
<path opacity="0.1" d="M344.431 189.853L336.022 177.205C335.789 176.853 335.432 176.611 335.028 176.532C334.623 176.452 334.205 176.541 333.863 176.779L310.7 192.875C310.53 192.995 310.384 193.148 310.27 193.326C310.157 193.504 310.079 193.703 310.04 193.912C310.001 194.121 310.002 194.337 310.044 194.545C310.086 194.754 310.167 194.952 310.282 195.129L318.854 208.139C318.969 208.316 319.117 208.467 319.289 208.584C319.461 208.701 319.654 208.782 319.857 208.822C320.059 208.861 320.267 208.859 320.469 208.815C320.67 208.771 320.861 208.686 321.031 208.565L344.032 192.094C344.201 191.974 344.345 191.821 344.456 191.644C344.568 191.466 344.644 191.268 344.681 191.06C344.718 190.851 344.715 190.638 344.672 190.431C344.63 190.224 344.548 190.028 344.431 189.853V189.853Z" fill="black"/>
<path d="M344.818 189.931L336.409 177.282C336.175 176.932 335.818 176.691 335.414 176.612C335.01 176.532 334.592 176.62 334.25 176.856L311.118 192.966C310.947 193.084 310.799 193.236 310.685 193.414C310.57 193.592 310.491 193.791 310.452 194.001C310.412 194.21 310.413 194.426 310.455 194.635C310.497 194.844 310.578 195.043 310.694 195.219L319.241 208.216C319.356 208.393 319.504 208.544 319.676 208.662C319.848 208.779 320.041 208.86 320.243 208.899C320.446 208.939 320.654 208.937 320.855 208.892C321.057 208.848 321.248 208.763 321.418 208.643L344.431 192.172C344.599 192.051 344.742 191.897 344.852 191.719C344.962 191.541 345.038 191.342 345.074 191.134C345.11 190.926 345.105 190.713 345.062 190.506C345.018 190.3 344.935 190.104 344.818 189.931Z" fill="#939498"/>
<path d="M396.964 210.373L379.123 204.213L321.898 245.355L339.609 251.328C340.086 251.489 340.593 251.533 341.09 251.457C341.587 251.381 342.06 251.186 342.472 250.889L397.127 211.555C397.233 211.49 397.318 211.394 397.372 211.278C397.425 211.163 397.445 211.034 397.427 210.908C397.41 210.781 397.357 210.663 397.274 210.568C397.192 210.472 397.084 210.405 396.964 210.373V210.373Z" fill="url(#paint0_linear_302_188)"/>
<defs>
<linearGradient id="paint0_linear_302_188" x1="379" y1="196.211" x2="350" y2="251.711" gradientUnits="userSpaceOnUse">
<stop stop-color="#CD00EE"/>
<stop offset="1" stop-color="#FE8900"/>
</linearGradient>
</defs>
</svg>
