<svg id="visual" viewBox="0 0 400 100" width="400" height="100" xmlns="http://www.w3.org/2000/svg" xmlns:xlink="http://www.w3.org/1999/xlink" version="1.1"><rect x="0" y="0" width="400" height="100" fill="#00070e"></rect><defs><linearGradient id="grad1_0" x1="75%" y1="100%" x2="100%" y2="0%"><stop offset="-30%" stop-color="#ff0066" stop-opacity="1"></stop><stop offset="130%" stop-color="#ff0066" stop-opacity="1"></stop></linearGradient></defs><defs><linearGradient id="grad1_1" x1="75%" y1="100%" x2="100%" y2="0%"><stop offset="-30%" stop-color="#ff0066" stop-opacity="1"></stop><stop offset="130%" stop-color="#583073" stop-opacity="1"></stop></linearGradient></defs><defs><linearGradient id="grad1_2" x1="75%" y1="100%" x2="100%" y2="0%"><stop offset="-30%" stop-color="#00070e" stop-opacity="1"></stop><stop offset="130%" stop-color="#583073" stop-opacity="1"></stop></linearGradient></defs><defs><linearGradient id="grad2_0" x1="0%" y1="100%" x2="25%" y2="0%"><stop offset="-30%" stop-color="#ff0066" stop-opacity="1"></stop><stop offset="130%" stop-color="#ff0066" stop-opacity="1"></stop></linearGradient></defs><defs><linearGradient id="grad2_1" x1="0%" y1="100%" x2="25%" y2="0%"><stop offset="-30%" stop-color="#583073" stop-opacity="1"></stop><stop offset="130%" stop-color="#ff0066" stop-opacity="1"></stop></linearGradient></defs><defs><linearGradient id="grad2_2" x1="0%" y1="100%" x2="25%" y2="0%"><stop offset="-30%" stop-color="#583073" stop-opacity="1"></stop><stop offset="130%" stop-color="#00070e" stop-opacity="1"></stop></linearGradient></defs><g transform="translate(400, 100)"><path d="M-70 0C-69 -13.6 -68 -27.3 -60.6 -35C-53.3 -42.7 -39.7 -44.5 -28.5 -49.4C-17.3 -54.2 -8.7 -62.1 0 -70L0 0Z" fill="#162446"></path><path d="M-46.7 0C-46 -9.1 -45.3 -18.2 -40.4 -23.3C-35.5 -28.5 -26.4 -29.7 -19 -32.9C-11.6 -36.1 -5.8 -41.4 0 -46.7L0 0Z" fill="#b02380"></path><path d="M-23.3 0C-23 -4.5 -22.7 -9.1 -20.2 -11.7C-17.8 -14.2 -13.2 -14.8 -9.5 -16.5C-5.8 -18.1 -2.9 -20.7 0 -23.3L0 0Z" fill="#ff0066"></path></g><g transform="translate(0, 0)"><path d="M70 0C61.2 8.1 52.4 16.3 47.6 27.5C42.9 38.7 42.3 53 35 60.6C27.7 68.2 13.9 69.1 0 70L0 0Z" fill="#162446"></path><path d="M46.7 0C40.8 5.4 34.9 10.9 31.8 18.3C28.6 25.8 28.2 35.3 23.3 40.4C18.5 45.5 9.2 46.1 0 46.7L0 0Z" fill="#b02380"></path><path d="M23.3 0C20.4 2.7 17.5 5.4 15.9 9.2C14.3 12.9 14.1 17.7 11.7 20.2C9.2 22.7 4.6 23 0 23.3L0 0Z" fill="#ff0066"></path></g></svg>