<svg width="265" height="68" viewBox="0 0 265 68" fill="none" xmlns="http://www.w3.org/2000/svg">
<path d="M64.62 58C64.2167 58 63.8867 57.8717 63.63 57.615C63.3733 57.3583 63.245 57.0283 63.245 56.625V20.325C63.245 19.9217 63.3733 19.5917 63.63 19.335C63.8867 19.0783 64.2167 18.95 64.62 18.95H71.66C72.0633 18.95 72.3933 19.0783 72.65 19.335C72.9067 19.5917 73.035 19.9217 73.035 20.325V32.59C74.025 31.4533 75.235 30.555 76.665 29.895C78.1317 29.1983 79.8183 28.85 81.725 28.85C83.8517 28.85 85.74 29.3267 87.39 30.28C89.0767 31.2333 90.3967 32.645 91.35 34.515C92.3033 36.3483 92.78 38.6033 92.78 41.28V56.625C92.78 57.0283 92.6517 57.3583 92.395 57.615C92.1383 57.8717 91.8083 58 91.405 58H84.31C83.9433 58 83.6133 57.8717 83.32 57.615C83.0633 57.3583 82.935 57.0283 82.935 56.625V41.61C82.935 39.8867 82.5133 38.5667 81.67 37.65C80.8633 36.6967 79.6533 36.22 78.04 36.22C76.5367 36.22 75.3267 36.6967 74.41 37.65C73.4933 38.5667 73.035 39.8867 73.035 41.61V56.625C73.035 57.0283 72.9067 57.3583 72.65 57.615C72.3933 57.8717 72.0633 58 71.66 58H64.62ZM107.596 58.55C105.616 58.55 103.838 58.1833 102.261 57.45C100.721 56.68 99.4932 55.6533 98.5765 54.37C97.6598 53.0867 97.2015 51.6383 97.2015 50.025C97.2015 47.4217 98.2648 45.3683 100.391 43.865C102.518 42.325 105.341 41.28 108.861 40.73L115.736 39.685V38.915C115.736 37.595 115.461 36.5867 114.911 35.89C114.361 35.1933 113.353 34.845 111.886 34.845C110.86 34.845 110.016 35.0467 109.356 35.45C108.733 35.8533 108.238 36.4033 107.871 37.1C107.541 37.5767 107.083 37.815 106.496 37.815H100.336C99.9332 37.815 99.6215 37.705 99.4015 37.485C99.1815 37.2283 99.0898 36.935 99.1265 36.605C99.1265 35.945 99.3648 35.1933 99.8415 34.35C100.355 33.47 101.125 32.6083 102.151 31.765C103.178 30.9217 104.498 30.225 106.111 29.675C107.725 29.125 109.668 28.85 111.941 28.85C114.325 28.85 116.36 29.125 118.046 29.675C119.733 30.225 121.09 30.995 122.116 31.985C123.18 32.975 123.968 34.1483 124.481 35.505C124.995 36.825 125.251 38.2917 125.251 39.905V56.625C125.251 57.0283 125.105 57.3583 124.811 57.615C124.555 57.8717 124.243 58 123.876 58H117.496C117.093 58 116.763 57.8717 116.506 57.615C116.25 57.3583 116.121 57.0283 116.121 56.625V54.7C115.645 55.3967 115.003 56.0383 114.196 56.625C113.39 57.2117 112.436 57.67 111.336 58C110.273 58.3667 109.026 58.55 107.596 58.55ZM110.181 52.28C111.245 52.28 112.198 52.06 113.041 51.62C113.921 51.1433 114.6 50.4283 115.076 49.475C115.59 48.485 115.846 47.2567 115.846 45.79V45.02L111.171 45.845C109.448 46.1383 108.183 46.5967 107.376 47.22C106.606 47.8067 106.221 48.5033 106.221 49.31C106.221 49.9333 106.405 50.465 106.771 50.905C107.138 51.345 107.615 51.6933 108.201 51.95C108.788 52.17 109.448 52.28 110.181 52.28ZM145.873 58C143.526 58 141.491 57.6333 139.768 56.9C138.081 56.13 136.78 54.9567 135.863 53.38C134.946 51.7667 134.488 49.695 134.488 47.165V36.605H130.198C129.795 36.605 129.446 36.4767 129.153 36.22C128.896 35.9633 128.768 35.6333 128.768 35.23V30.775C128.768 30.3717 128.896 30.0417 129.153 29.785C129.446 29.5283 129.795 29.4 130.198 29.4H134.488V20.325C134.488 19.9217 134.616 19.5917 134.873 19.335C135.166 19.0783 135.496 18.95 135.863 18.95H142.243C142.646 18.95 142.976 19.0783 143.233 19.335C143.49 19.5917 143.618 19.9217 143.618 20.325V29.4H150.493C150.896 29.4 151.226 29.5283 151.483 29.785C151.74 30.0417 151.868 30.3717 151.868 30.775V35.23C151.868 35.6333 151.74 35.9633 151.483 36.22C151.226 36.4767 150.896 36.605 150.493 36.605H143.618V46.395C143.618 47.6417 143.856 48.6317 144.333 49.365C144.81 50.0983 145.616 50.465 146.753 50.465H150.988C151.391 50.465 151.721 50.5933 151.978 50.85C152.235 51.1067 152.363 51.4367 152.363 51.84V56.625C152.363 57.0283 152.235 57.3583 151.978 57.615C151.721 57.8717 151.391 58 150.988 58H145.873ZM170.062 58.55C167.349 58.55 164.947 58.055 162.857 57.065C160.767 56.075 159.099 54.645 157.852 52.775C156.642 50.8683 155.982 48.595 155.872 45.955C155.835 45.3683 155.817 44.635 155.817 43.755C155.817 42.8383 155.835 42.0867 155.872 41.5C155.982 38.8233 156.642 36.55 157.852 34.68C159.062 32.7733 160.712 31.325 162.802 30.335C164.929 29.345 167.349 28.85 170.062 28.85C172.592 28.85 174.755 29.2167 176.552 29.95C178.349 30.6467 179.815 31.5267 180.952 32.59C182.089 33.6533 182.932 34.7533 183.482 35.89C184.069 36.99 184.38 37.9617 184.417 38.805C184.454 39.1717 184.325 39.5017 184.032 39.795C183.739 40.0517 183.409 40.18 183.042 40.18H176.057C175.654 40.18 175.342 40.0883 175.122 39.905C174.902 39.7217 174.7 39.4467 174.517 39.08C174.077 37.9433 173.509 37.1367 172.812 36.66C172.152 36.1833 171.29 35.945 170.227 35.945C168.76 35.945 167.624 36.4217 166.817 37.375C166.047 38.3283 165.625 39.795 165.552 41.775C165.515 43.2417 165.515 44.5433 165.552 45.68C165.625 47.6967 166.047 49.1633 166.817 50.08C167.624 50.9967 168.76 51.455 170.227 51.455C171.364 51.455 172.262 51.2167 172.922 50.74C173.582 50.2633 174.114 49.4567 174.517 48.32C174.7 47.9533 174.902 47.6783 175.122 47.495C175.342 47.3117 175.654 47.22 176.057 47.22H183.042C183.409 47.22 183.739 47.3667 184.032 47.66C184.325 47.9167 184.454 48.2283 184.417 48.595C184.38 49.2183 184.197 49.9517 183.867 50.795C183.537 51.6017 183.024 52.4633 182.327 53.38C181.63 54.2967 180.714 55.1583 179.577 55.965C178.477 56.735 177.139 57.3583 175.562 57.835C173.985 58.3117 172.152 58.55 170.062 58.55ZM190.733 58C190.33 58 190 57.8717 189.743 57.615C189.487 57.3583 189.358 57.0283 189.358 56.625V20.325C189.358 19.9217 189.487 19.5917 189.743 19.335C190 19.0783 190.33 18.95 190.733 18.95H197.773C198.177 18.95 198.507 19.0783 198.763 19.335C199.02 19.5917 199.148 19.9217 199.148 20.325V32.59C200.138 31.4533 201.348 30.555 202.778 29.895C204.245 29.1983 205.932 28.85 207.838 28.85C209.965 28.85 211.853 29.3267 213.503 30.28C215.19 31.2333 216.51 32.645 217.463 34.515C218.417 36.3483 218.893 38.6033 218.893 41.28V56.625C218.893 57.0283 218.765 57.3583 218.508 57.615C218.252 57.8717 217.922 58 217.518 58H210.423C210.057 58 209.727 57.8717 209.433 57.615C209.177 57.3583 209.048 57.0283 209.048 56.625V41.61C209.048 39.8867 208.627 38.5667 207.783 37.65C206.977 36.6967 205.767 36.22 204.153 36.22C202.65 36.22 201.44 36.6967 200.523 37.65C199.607 38.5667 199.148 39.8867 199.148 41.61V56.625C199.148 57.0283 199.02 57.3583 198.763 57.615C198.507 57.8717 198.177 58 197.773 58H190.733ZM226.505 58C226.101 58 225.771 57.8717 225.515 57.615C225.258 57.3583 225.13 57.0283 225.13 56.625V30.775C225.13 30.4083 225.258 30.0967 225.515 29.84C225.771 29.5467 226.101 29.4 226.505 29.4H232.83C233.233 29.4 233.563 29.5467 233.82 29.84C234.076 30.0967 234.205 30.4083 234.205 30.775V32.975C235.195 31.8383 236.368 30.9583 237.725 30.335C239.118 29.7117 240.676 29.4 242.4 29.4H244.82C245.186 29.4 245.498 29.5283 245.755 29.785C246.048 30.0417 246.195 30.3717 246.195 30.775V36.44C246.195 36.8067 246.048 37.1367 245.755 37.43C245.498 37.6867 245.186 37.815 244.82 37.815H239.485C237.981 37.815 236.808 38.2367 235.965 39.08C235.158 39.8867 234.755 41.0417 234.755 42.545V56.625C234.755 57.0283 234.608 57.3583 234.315 57.615C234.058 57.8717 233.728 58 233.325 58H226.505Z" fill="white"/>
<path d="M27.9997 9.20232C30.8089 4.34846 33.8523 3.75729 35.0228 4.06843M26.8908 9.20232C27.6301 5.04046 28.4309 4 28.739 4M12.8307 36.1429C11.0501 33.4309 10.0121 30.1723 10.0121 26.6673C10.0121 17.2269 17.542 9.57392 26.8307 9.57392C36.1193 9.57392 43.6492 17.2269 43.6492 26.6673C43.6492 30.0136 42.7031 33.1354 41.0678 35.7713M49.1938 31.6838L42.7251 36.5145L34.5931 31.6838L26.8908 36.5145L18.8834 31.6838L11.4907 36.5145L4.65237 31.6838M49.1938 31.6838C51.35 42.1504 50.3283 63.2384 27.4107 63.9816C4.49312 64.7248 2.55775 42.7697 4.65237 31.6838M49.1938 31.6838C51.35 42.1504 50.4461 63.2384 27.5285 63.9816C4.61092 64.7248 2.55775 42.7697 4.65237 31.6838M49.1938 31.6838C51.35 42.1504 50.5639 63.2384 27.6463 63.9816C4.72872 64.7248 2.55775 42.7697 4.65237 31.6838M49.1938 31.6838C51.35 42.1504 50.6817 63.2384 27.7641 63.9816C4.84652 64.7248 2.55775 42.7697 4.65237 31.6838M49.1938 31.6838C51.35 42.1504 50.2105 63.2384 27.2929 63.9816C4.37532 64.7248 2.55775 42.7697 4.65237 31.6838" stroke="#F2EEEA" stroke-width="7"/>
</svg>
