<svg id="visual" viewBox="0 0 960 540" width="960" height="540" xmlns="http://www.w3.org/2000/svg" xmlns:xlink="http://www.w3.org/1999/xlink" version="1.1"><rect x="0" y="0" width="960" height="540" fill="#00050c"></rect><defs><linearGradient id="grad1_0" x1="43.8%" y1="0%" x2="100%" y2="100%"><stop offset="14.444444444444446%" stop-color="#d21e70" stop-opacity="1"></stop><stop offset="85.55555555555554%" stop-color="#d21e70" stop-opacity="1"></stop></linearGradient></defs><defs><linearGradient id="grad1_1" x1="43.8%" y1="0%" x2="100%" y2="100%"><stop offset="14.444444444444446%" stop-color="#d21e70" stop-opacity="1"></stop><stop offset="85.55555555555554%" stop-color="#ab2677" stop-opacity="1"></stop></linearGradient></defs><defs><linearGradient id="grad1_2" x1="43.8%" y1="0%" x2="100%" y2="100%"><stop offset="14.444444444444446%" stop-color="#822d74" stop-opacity="1"></stop><stop offset="85.55555555555554%" stop-color="#ab2677" stop-opacity="1"></stop></linearGradient></defs><defs><linearGradient id="grad1_3" x1="43.8%" y1="0%" x2="100%" y2="100%"><stop offset="14.444444444444446%" stop-color="#822d74" stop-opacity="1"></stop><stop offset="85.55555555555554%" stop-color="#5b2e6a" stop-opacity="1"></stop></linearGradient></defs><defs><linearGradient id="grad1_4" x1="43.8%" y1="0%" x2="100%" y2="100%"><stop offset="14.444444444444446%" stop-color="#382a58" stop-opacity="1"></stop><stop offset="85.55555555555554%" stop-color="#5b2e6a" stop-opacity="1"></stop></linearGradient></defs><defs><linearGradient id="grad1_5" x1="43.8%" y1="0%" x2="100%" y2="100%"><stop offset="14.444444444444446%" stop-color="#382a58" stop-opacity="1"></stop><stop offset="85.55555555555554%" stop-color="#1d2241" stop-opacity="1"></stop></linearGradient></defs><defs><linearGradient id="grad1_6" x1="43.8%" y1="0%" x2="100%" y2="100%"><stop offset="14.444444444444446%" stop-color="#0e1727" stop-opacity="1"></stop><stop offset="85.55555555555554%" stop-color="#1d2241" stop-opacity="1"></stop></linearGradient></defs><defs><linearGradient id="grad1_7" x1="43.8%" y1="0%" x2="100%" y2="100%"><stop offset="14.444444444444446%" stop-color="#0e1727" stop-opacity="1"></stop><stop offset="85.55555555555554%" stop-color="#00050c" stop-opacity="1"></stop></linearGradient></defs><defs><linearGradient id="grad2_0" x1="0%" y1="0%" x2="56.3%" y2="100%"><stop offset="14.444444444444446%" stop-color="#d21e70" stop-opacity="1"></stop><stop offset="85.55555555555554%" stop-color="#d21e70" stop-opacity="1"></stop></linearGradient></defs><defs><linearGradient id="grad2_1" x1="0%" y1="0%" x2="56.3%" y2="100%"><stop offset="14.444444444444446%" stop-color="#ab2677" stop-opacity="1"></stop><stop offset="85.55555555555554%" stop-color="#d21e70" stop-opacity="1"></stop></linearGradient></defs><defs><linearGradient id="grad2_2" x1="0%" y1="0%" x2="56.3%" y2="100%"><stop offset="14.444444444444446%" stop-color="#ab2677" stop-opacity="1"></stop><stop offset="85.55555555555554%" stop-color="#822d74" stop-opacity="1"></stop></linearGradient></defs><defs><linearGradient id="grad2_3" x1="0%" y1="0%" x2="56.3%" y2="100%"><stop offset="14.444444444444446%" stop-color="#5b2e6a" stop-opacity="1"></stop><stop offset="85.55555555555554%" stop-color="#822d74" stop-opacity="1"></stop></linearGradient></defs><defs><linearGradient id="grad2_4" x1="0%" y1="0%" x2="56.3%" y2="100%"><stop offset="14.444444444444446%" stop-color="#5b2e6a" stop-opacity="1"></stop><stop offset="85.55555555555554%" stop-color="#382a58" stop-opacity="1"></stop></linearGradient></defs><defs><linearGradient id="grad2_5" x1="0%" y1="0%" x2="56.3%" y2="100%"><stop offset="14.444444444444446%" stop-color="#1d2241" stop-opacity="1"></stop><stop offset="85.55555555555554%" stop-color="#382a58" stop-opacity="1"></stop></linearGradient></defs><defs><linearGradient id="grad2_6" x1="0%" y1="0%" x2="56.3%" y2="100%"><stop offset="14.444444444444446%" stop-color="#1d2241" stop-opacity="1"></stop><stop offset="85.55555555555554%" stop-color="#0e1727" stop-opacity="1"></stop></linearGradient></defs><defs><linearGradient id="grad2_7" x1="0%" y1="0%" x2="56.3%" y2="100%"><stop offset="14.444444444444446%" stop-color="#00050c" stop-opacity="1"></stop><stop offset="85.55555555555554%" stop-color="#0e1727" stop-opacity="1"></stop></linearGradient></defs><g transform="translate(960, 0)"><path d="M0 351C-29 317.2 -58.1 283.4 -86.8 267.2C-115.6 251.1 -144 252.5 -179.9 247.6C-215.7 242.7 -258.8 231.5 -284 206.3C-309.1 181.2 -316.1 142.1 -324.3 105.4C-332.5 68.7 -341.7 34.3 -351 0L0 0Z" fill="#07101b"></path><path d="M0 307.1C-25.4 277.6 -50.8 248 -76 233.8C-101.1 219.7 -126 220.9 -157.4 216.6C-188.7 212.3 -226.5 202.5 -248.5 180.5C-270.4 158.5 -276.6 124.3 -283.8 92.2C-290.9 60.1 -299 30 -307.1 0L0 0Z" fill="#141d34"></path><path d="M0 263.3C-21.8 237.9 -43.6 212.6 -65.1 200.4C-86.7 188.3 -108 189.3 -134.9 185.7C-161.8 182 -194.1 173.6 -213 154.7C-231.8 135.9 -237.1 106.6 -243.2 79C-249.4 51.5 -256.3 25.7 -263.2 0L0 0Z" fill="#29264d"></path><path d="M0 219.4C-18.2 198.3 -36.3 177.1 -54.3 167C-72.2 156.9 -90 157.8 -112.4 154.7C-134.8 151.7 -161.8 144.7 -177.5 128.9C-193.2 113.2 -197.6 88.8 -202.7 65.9C-207.8 42.9 -213.6 21.5 -219.4 0L0 0Z" fill="#482c62"></path><path d="M0 175.5C-14.5 158.6 -29 141.7 -43.4 133.6C-57.8 125.5 -72 126.2 -89.9 123.8C-107.8 121.3 -129.4 115.7 -142 103.2C-154.5 90.6 -158.1 71 -162.2 52.7C-166.2 34.3 -170.9 17.2 -175.5 0L0 0Z" fill="#6e2e70"></path><path d="M0 131.6C-10.9 119 -21.8 106.3 -32.6 100.2C-43.3 94.1 -54 94.7 -67.4 92.8C-80.9 91 -97.1 86.8 -106.5 77.4C-115.9 67.9 -118.6 53.3 -121.6 39.5C-124.7 25.7 -128.2 12.9 -131.6 0L0 0Z" fill="#962a77"></path><path d="M0 87.8C-7.3 79.3 -14.5 70.9 -21.7 66.8C-28.9 62.8 -36 63.1 -45 61.9C-53.9 60.7 -64.7 57.9 -71 51.6C-77.3 45.3 -79 35.5 -81.1 26.3C-83.1 17.2 -85.4 8.6 -87.7 0L0 0Z" fill="#bf2274"></path><path d="M0 43.9C-3.6 39.7 -7.3 35.4 -10.9 33.4C-14.4 31.4 -18 31.6 -22.5 30.9C-27 30.3 -32.4 28.9 -35.5 25.8C-38.6 22.6 -39.5 17.8 -40.5 13.2C-41.6 8.6 -42.7 4.3 -43.9 0L0 0Z" fill="#d21e70"></path></g><g transform="translate(0, 540)"><path d="M0 -351C29.4 -321.7 58.7 -292.3 91.2 -280.6C123.6 -268.8 159 -274.6 193.4 -266.2C227.7 -257.8 261 -235.2 284 -206.3C306.9 -177.5 319.6 -142.3 329.1 -106.9C338.5 -71.5 344.8 -35.7 351 0L0 0Z" fill="#07101b"></path><path d="M0 -307.1C25.7 -281.5 51.4 -255.8 79.8 -245.5C108.1 -235.2 139.1 -240.3 169.2 -232.9C199.3 -225.5 228.4 -205.8 248.5 -180.5C268.6 -155.3 279.7 -124.6 287.9 -93.6C296.2 -62.6 301.7 -31.3 307.1 0L0 0Z" fill="#141d34"></path><path d="M0 -263.2C22 -241.3 44.1 -219.3 68.4 -210.4C92.7 -201.6 119.3 -205.9 145 -199.6C170.8 -193.3 195.7 -176.4 213 -154.7C230.2 -133.1 239.7 -106.8 246.8 -80.2C253.9 -53.6 258.6 -26.8 263.3 0L0 0Z" fill="#29264d"></path><path d="M0 -219.4C18.4 -201 36.7 -182.7 57 -175.4C77.2 -168 99.4 -171.6 120.9 -166.4C142.3 -161.1 163.1 -147 177.5 -128.9C191.8 -110.9 199.8 -89 205.7 -66.8C211.6 -44.7 215.5 -22.3 219.4 0L0 0Z" fill="#482c62"></path><path d="M0 -175.5C14.7 -160.8 29.4 -146.2 45.6 -140.3C61.8 -134.4 79.5 -137.3 96.7 -133.1C113.9 -128.9 130.5 -117.6 142 -103.2C153.5 -88.7 159.8 -71.2 164.5 -53.5C169.3 -35.7 172.4 -17.9 175.5 0L0 0Z" fill="#6e2e70"></path><path d="M0 -131.6C11 -120.6 22 -109.6 34.2 -105.2C46.3 -100.8 59.6 -103 72.5 -99.8C85.4 -96.7 97.9 -88.2 106.5 -77.4C115.1 -66.5 119.9 -53.4 123.4 -40.1C126.9 -26.8 129.3 -13.4 131.6 0L0 0Z" fill="#962a77"></path><path d="M0 -87.7C7.3 -80.4 14.7 -73.1 22.8 -70.1C30.9 -67.2 39.8 -68.6 48.3 -66.5C56.9 -64.4 65.2 -58.8 71 -51.6C76.7 -44.4 79.9 -35.6 82.3 -26.7C84.6 -17.9 86.2 -8.9 87.8 0L0 0Z" fill="#bf2274"></path><path d="M0 -43.9C3.7 -40.2 7.3 -36.5 11.4 -35.1C15.4 -33.6 19.9 -34.3 24.2 -33.3C28.5 -32.2 32.6 -29.4 35.5 -25.8C38.4 -22.2 40 -17.8 41.1 -13.4C42.3 -8.9 43.1 -4.5 43.9 0L0 0Z" fill="#d21e70"></path></g></svg>