<svg id="visual" viewBox="0 0 900 450" width="900" height="450" xmlns="http://www.w3.org/2000/svg" xmlns:xlink="http://www.w3.org/1999/xlink" version="1.1"><rect x="0" y="0" width="900" height="450" fill="#001220"></rect><path d="M0 350L12.5 348.7C25 347.3 50 344.7 75 344.7C100 344.7 125 347.3 150 347.2C175 347 200 344 225 340.8C250 337.7 275 334.3 300 336.2C325 338 350 345 375 347.7C400 350.3 425 348.7 450 347.7C475 346.7 500 346.3 525 344.5C550 342.7 575 339.3 600 338C625 336.7 650 337.3 675 337.3C700 337.3 725 336.7 750 338.3C775 340 800 344 825 343.7C850 343.3 875 338.7 887.5 336.3L900 334L900 451L887.5 451C875 451 850 451 825 451C800 451 775 451 750 451C725 451 700 451 675 451C650 451 625 451 600 451C575 451 550 451 525 451C500 451 475 451 450 451C425 451 400 451 375 451C350 451 325 451 300 451C275 451 250 451 225 451C200 451 175 451 150 451C125 451 100 451 75 451C50 451 25 451 12.5 451L0 451Z" fill="#ff0066"></path><path d="M0 354L12.5 352.3C25 350.7 50 347.3 75 346C100 344.7 125 345.3 150 345.7C175 346 200 346 225 345.8C250 345.7 275 345.3 300 345.3C325 345.3 350 345.7 375 344.8C400 344 425 342 450 342.8C475 343.7 500 347.3 525 350.7C550 354 575 357 600 358C625 359 650 358 675 358C700 358 725 359 750 356.2C775 353.3 800 346.7 825 344.7C850 342.7 875 345.3 887.5 346.7L900 348L900 451L887.5 451C875 451 850 451 825 451C800 451 775 451 750 451C725 451 700 451 675 451C650 451 625 451 600 451C575 451 550 451 525 451C500 451 475 451 450 451C425 451 400 451 375 451C350 451 325 451 300 451C275 451 250 451 225 451C200 451 175 451 150 451C125 451 100 451 75 451C50 451 25 451 12.5 451L0 451Z" fill="#e70373"></path><path d="M0 359L12.5 358.8C25 358.7 50 358.3 75 358.7C100 359 125 360 150 359.2C175 358.3 200 355.7 225 355.8C250 356 275 359 300 358.8C325 358.7 350 355.3 375 355.2C400 355 425 358 450 357.8C475 357.7 500 354.3 525 354.5C550 354.7 575 358.3 600 359.8C625 361.3 650 360.7 675 360C700 359.3 725 358.7 750 357.2C775 355.7 800 353.3 825 353.7C850 354 875 357 887.5 358.5L900 360L900 451L887.5 451C875 451 850 451 825 451C800 451 775 451 750 451C725 451 700 451 675 451C650 451 625 451 600 451C575 451 550 451 525 451C500 451 475 451 450 451C425 451 400 451 375 451C350 451 325 451 300 451C275 451 250 451 225 451C200 451 175 451 150 451C125 451 100 451 75 451C50 451 25 451 12.5 451L0 451Z" fill="#cb167c"></path><path d="M0 366L12.5 366C25 366 50 366 75 367.2C100 368.3 125 370.7 150 370.3C175 370 200 367 225 365.2C250 363.3 275 362.7 300 364C325 365.3 350 368.7 375 369.5C400 370.3 425 368.7 450 367.7C475 366.7 500 366.3 525 365.8C550 365.3 575 364.7 600 363.7C625 362.7 650 361.3 675 361C700 360.7 725 361.3 750 363.2C775 365 800 368 825 369C850 370 875 369 887.5 368.5L900 368L900 451L887.5 451C875 451 850 451 825 451C800 451 775 451 750 451C725 451 700 451 675 451C650 451 625 451 600 451C575 451 550 451 525 451C500 451 475 451 450 451C425 451 400 451 375 451C350 451 325 451 300 451C275 451 250 451 225 451C200 451 175 451 150 451C125 451 100 451 75 451C50 451 25 451 12.5 451L0 451Z" fill="#ae2381"></path><path d="M0 378L12.5 377.8C25 377.7 50 377.3 75 376.2C100 375 125 373 150 371.5C175 370 200 369 225 368.8C250 368.7 275 369.3 300 371.5C325 373.7 350 377.3 375 377.7C400 378 425 375 450 374.2C475 373.3 500 374.7 525 375.8C550 377 575 378 600 378.2C625 378.3 650 377.7 675 376.5C700 375.3 725 373.7 750 374.3C775 375 800 378 825 379.2C850 380.3 875 379.7 887.5 379.3L900 379L900 451L887.5 451C875 451 850 451 825 451C800 451 775 451 750 451C725 451 700 451 675 451C650 451 625 451 600 451C575 451 550 451 525 451C500 451 475 451 450 451C425 451 400 451 375 451C350 451 325 451 300 451C275 451 250 451 225 451C200 451 175 451 150 451C125 451 100 451 75 451C50 451 25 451 12.5 451L0 451Z" fill="#8f2b81"></path><path d="M0 393L12.5 391.5C25 390 50 387 75 386C100 385 125 386 150 385.5C175 385 200 383 225 381.8C250 380.7 275 380.3 300 382C325 383.7 350 387.3 375 388.2C400 389 425 387 450 386.2C475 385.3 500 385.7 525 386.8C550 388 575 390 600 390.3C625 390.7 650 389.3 675 388.5C700 387.7 725 387.3 750 387.3C775 387.3 800 387.7 825 387.5C850 387.3 875 386.7 887.5 386.3L900 386L900 451L887.5 451C875 451 850 451 825 451C800 451 775 451 750 451C725 451 700 451 675 451C650 451 625 451 600 451C575 451 550 451 525 451C500 451 475 451 450 451C425 451 400 451 375 451C350 451 325 451 300 451C275 451 250 451 225 451C200 451 175 451 150 451C125 451 100 451 75 451C50 451 25 451 12.5 451L0 451Z" fill="#712f7c"></path><path d="M0 400L12.5 400.2C25 400.3 50 400.7 75 399C100 397.3 125 393.7 150 392.8C175 392 200 394 225 393.5C250 393 275 390 300 390.3C325 390.7 350 394.3 375 396.3C400 398.3 425 398.7 450 397.7C475 396.7 500 394.3 525 394.5C550 394.7 575 397.3 600 398.2C625 399 650 398 675 397.8C700 397.7 725 398.3 750 398.5C775 398.7 800 398.3 825 397.5C850 396.7 875 395.3 887.5 394.7L900 394L900 451L887.5 451C875 451 850 451 825 451C800 451 775 451 750 451C725 451 700 451 675 451C650 451 625 451 600 451C575 451 550 451 525 451C500 451 475 451 450 451C425 451 400 451 375 451C350 451 325 451 300 451C275 451 250 451 225 451C200 451 175 451 150 451C125 451 100 451 75 451C50 451 25 451 12.5 451L0 451Z" fill="#543073"></path><path d="M0 400L12.5 401.3C25 402.7 50 405.3 75 405.3C100 405.3 125 402.7 150 400.8C175 399 200 398 225 399.2C250 400.3 275 403.7 300 405.3C325 407 350 407 375 407.5C400 408 425 409 450 408.5C475 408 500 406 525 404C550 402 575 400 600 399C625 398 650 398 675 398.7C700 399.3 725 400.7 750 402.3C775 404 800 406 825 406.5C850 407 875 406 887.5 405.5L900 405L900 451L887.5 451C875 451 850 451 825 451C800 451 775 451 750 451C725 451 700 451 675 451C650 451 625 451 600 451C575 451 550 451 525 451C500 451 475 451 450 451C425 451 400 451 375 451C350 451 325 451 300 451C275 451 250 451 225 451C200 451 175 451 150 451C125 451 100 451 75 451C50 451 25 451 12.5 451L0 451Z" fill="#392e66"></path><path d="M0 415L12.5 414.8C25 414.7 50 414.3 75 414.7C100 415 125 416 150 416C175 416 200 415 225 413.8C250 412.7 275 411.3 300 411.5C325 411.7 350 413.3 375 414C400 414.7 425 414.3 450 414C475 413.7 500 413.3 525 412.8C550 412.3 575 411.7 600 410.7C625 409.7 650 408.3 675 409.5C700 410.7 725 414.3 750 415.5C775 416.7 800 415.3 825 414.8C850 414.3 875 414.7 887.5 414.8L900 415L900 451L887.5 451C875 451 850 451 825 451C800 451 775 451 750 451C725 451 700 451 675 451C650 451 625 451 600 451C575 451 550 451 525 451C500 451 475 451 450 451C425 451 400 451 375 451C350 451 325 451 300 451C275 451 250 451 225 451C200 451 175 451 150 451C125 451 100 451 75 451C50 451 25 451 12.5 451L0 451Z" fill="#212957"></path><path d="M0 425L12.5 424.8C25 424.7 50 424.3 75 423.3C100 422.3 125 420.7 150 420C175 419.3 200 419.7 225 419.5C250 419.3 275 418.7 300 419.3C325 420 350 422 375 421.7C400 421.3 425 418.7 450 418.2C475 417.7 500 419.3 525 420.7C550 422 575 423 600 422.8C625 422.7 650 421.3 675 420.7C700 420 725 420 750 420.2C775 420.3 800 420.7 825 421C850 421.3 875 421.7 887.5 421.8L900 422L900 451L887.5 451C875 451 850 451 825 451C800 451 775 451 750 451C725 451 700 451 675 451C650 451 625 451 600 451C575 451 550 451 525 451C500 451 475 451 450 451C425 451 400 451 375 451C350 451 325 451 300 451C275 451 250 451 225 451C200 451 175 451 150 451C125 451 100 451 75 451C50 451 25 451 12.5 451L0 451Z" fill="#0d2345"></path><path d="M0 434L12.5 434C25 434 50 434 75 433.5C100 433 125 432 150 431.2C175 430.3 200 429.7 225 429.7C250 429.7 275 430.3 300 429.7C325 429 350 427 375 426.7C400 426.3 425 427.7 450 428.8C475 430 500 431 525 430.7C550 430.3 575 428.7 600 428.8C625 429 650 431 675 431.2C700 431.3 725 429.7 750 429.8C775 430 800 432 825 431.7C850 431.3 875 428.7 887.5 427.3L900 426L900 451L887.5 451C875 451 850 451 825 451C800 451 775 451 750 451C725 451 700 451 675 451C650 451 625 451 600 451C575 451 550 451 525 451C500 451 475 451 450 451C425 451 400 451 375 451C350 451 325 451 300 451C275 451 250 451 225 451C200 451 175 451 150 451C125 451 100 451 75 451C50 451 25 451 12.5 451L0 451Z" fill="#031b32"></path><path d="M0 435L12.5 435.3C25 435.7 50 436.3 75 436.5C100 436.7 125 436.3 150 436.2C175 436 200 436 225 436.8C250 437.7 275 439.3 300 440.3C325 441.3 350 441.7 375 441.5C400 441.3 425 440.7 450 440.5C475 440.3 500 440.7 525 439.8C550 439 575 437 600 436.8C625 436.7 650 438.3 675 439.5C700 440.7 725 441.3 750 440.8C775 440.3 800 438.7 825 437.7C850 436.7 875 436.3 887.5 436.2L900 436L900 451L887.5 451C875 451 850 451 825 451C800 451 775 451 750 451C725 451 700 451 675 451C650 451 625 451 600 451C575 451 550 451 525 451C500 451 475 451 450 451C425 451 400 451 375 451C350 451 325 451 300 451C275 451 250 451 225 451C200 451 175 451 150 451C125 451 100 451 75 451C50 451 25 451 12.5 451L0 451Z" fill="#001220"></path></svg>