<svg width="597" height="507" viewBox="0 0 597 507" fill="none" xmlns="http://www.w3.org/2000/svg">
<g clip-path="url(#clip0_302_148)">
<path d="M575.427 414.196H21.4851C9.63843 414.196 0 404.558 0 392.711V326.04H596.912V392.711C596.912 404.558 587.274 414.196 575.427 414.196Z" fill="#E6E6E6"/>
<path d="M370.149 403.043H228.887V503.945H370.149V403.043Z" fill="#E6E6E6"/>
<path d="M378.646 491.2H220.39V503.945H378.646V491.2Z" fill="#E6E6E6"/>
<path d="M596.381 354.186H0V15.2442C0 7.1144 6.6144 0.5 14.7442 0.5H581.637C589.767 0.5 596.381 7.1144 596.381 15.2442V354.186Z" fill="#3F3D56"/>
<path d="M582.042 15.9009H13.8076V335.599H582.042V15.9009Z" fill="white"/>
<path d="M123.853 206.45C128.202 202.856 133.581 202.187 135.868 204.955C138.154 207.723 136.482 212.88 132.131 216.474C130.412 217.934 128.369 218.961 126.173 219.469L107.553 234.463L100.703 225.575L119.786 211.737C120.7 209.675 122.094 207.862 123.853 206.45H123.853Z" fill="#936D6D"/>
<path d="M16.2322 240.279C16.2228 239.616 16.229 233.832 20.5111 230.176C25.43 225.977 32.3709 227.677 34.8053 228.273C40.4289 229.65 40.8902 232.063 46.1713 234.541C56.0518 239.179 43.6719 236.805 49.5511 235.318C51.5862 234.803 80.8633 232.773 88.1509 228.287C102.324 219.564 111.982 214.274 111.982 214.274L118.295 226.9C118.295 226.9 109.166 239.594 96.3179 248.998C83.1386 258.643 76.549 263.466 66.5345 265.33C65.6721 265.49 44.4622 269.112 27.3794 256.349C23.4828 253.438 16.3435 248.104 16.2322 240.279Z" fill="black"/>
<path d="M35.8164 208.167C47.9626 208.167 57.809 198.321 57.809 186.175C57.809 174.029 47.9626 164.182 35.8164 164.182C23.6702 164.182 13.8237 174.029 13.8237 186.175C13.8237 198.321 23.6702 208.167 35.8164 208.167Z" fill="#936D6D"/>
<path d="M208.055 333.93L185.405 310.746L173.713 322.942L190.588 345.171L207.326 347.086L208.055 333.93Z" fill="#936D6D"/>
<path d="M78.7257 290.454C80.0504 290.564 84.2603 291.408 88.2841 289.194C91.0303 287.683 92.4387 285.436 92.9144 284.722C98.8158 275.859 121.467 262.037 141.795 261.187C146.399 260.994 149.429 261.528 152.183 262.963C156.089 264.999 157.648 267.915 162.603 274.746C165.314 278.483 168.314 282.003 171.057 285.716C187.119 307.452 193.208 309.158 192.586 316.127C191.896 323.859 183.557 331.194 178.015 330.347C175.745 330 174.866 328.422 171.834 325.227C162.943 315.86 159.264 317.59 152.934 310.415C145.544 302.038 146.511 295.092 142.655 294.824C139.08 294.575 137.56 300.5 129.926 308.372C126.433 311.974 123.946 313.626 116.368 318.883C86.857 339.356 86.3861 340.795 80.4305 342.428C77.8248 343.142 59.3309 348.213 52.7429 340.144C42.4334 327.517 66.7888 289.462 78.7257 290.454V290.454Z" fill="#2F2E41"/>
<path d="M201.13 339.169C202.796 338.421 204.744 337.546 205.37 335.535C205.794 334.174 205.55 332.496 204.674 331.337C203.663 329.999 202.166 329.823 202.226 329.586C202.318 329.225 205.858 329.366 209.743 330.74C210.477 330.999 213.798 332.213 218.024 335.511C221.409 338.154 220.953 338.684 223.076 340.208C229.593 344.886 235.704 341.199 239.23 345.586C240.591 347.279 241.172 349.683 240.599 351.626C239.449 355.53 233.856 356.873 230.799 357.566C223.438 359.237 217.866 357.873 212.048 356.893C192.261 353.559 181.144 356.595 179.656 352.011C179.374 351.144 179.832 351.218 181.357 344.851C182.863 338.567 182.814 336.841 184.096 336.338C186.027 335.581 187.323 339.026 192.186 340.205C196.495 341.25 200.051 339.654 201.13 339.169H201.13Z" fill="#2F2E41"/>
<path d="M167.787 409.775L162.065 377.873L145.542 381.399L147.022 409.268L159.797 420.251L167.787 409.775Z" fill="#936D6D"/>
<path d="M85.1873 301.178C86.2216 302.013 89.2315 305.074 93.8042 305.502C96.9249 305.794 99.3518 304.726 100.147 304.402C110.007 300.382 136.51 301.665 153.809 312.376C157.726 314.802 159.934 316.945 161.407 319.679C163.495 323.557 163.148 326.845 163.413 335.281C163.557 339.895 164.063 344.492 164.248 349.105C165.333 376.11 169.413 380.941 164.985 386.358C160.072 392.367 149.053 393.755 144.943 389.942C143.26 388.38 143.418 386.581 142.703 382.235C140.607 369.491 136.591 368.857 135.382 359.365C133.971 348.284 138.672 343.079 135.632 340.692C132.813 338.478 128.228 342.528 117.492 344.755C112.579 345.774 109.593 345.744 100.37 345.839C64.4551 346.208 63.2575 347.134 57.4126 345.141C54.8554 344.269 36.7055 338.079 35.7851 327.703C34.3448 311.466 75.867 293.654 85.1873 301.178H85.1873Z" fill="#2F2E41"/>
<path d="M159.116 410.222C160.914 410.538 163.017 410.908 164.665 409.596C165.78 408.708 166.52 407.182 166.446 405.731C166.36 404.056 165.221 403.069 165.404 402.907C165.683 402.661 168.532 404.765 170.976 408.083C171.437 408.71 173.504 411.579 175.148 416.681C176.465 420.769 175.791 420.952 176.691 423.405C179.457 430.935 186.584 431.316 187.038 436.926C187.214 439.091 186.344 441.406 184.779 442.693C181.635 445.277 176.253 443.248 173.335 442.105C166.306 439.353 162.461 435.096 158.197 431.018C143.697 417.148 132.792 413.418 134.135 408.789C134.389 407.913 134.727 408.231 139.564 403.82C144.339 399.466 145.267 398.01 146.61 398.314C148.633 398.771 147.771 402.35 151.133 406.056C154.112 409.341 157.95 410.016 159.116 410.222V410.222Z" fill="#2F2E41"/>
<path d="M38.8148 190.379C39.6709 187.317 38.5955 186.2 39.6916 184.826C39.6916 184.826 40.1327 184.272 44.076 182.78C42.9126 176.029 43.7837 174.888 43.7837 174.888C44.7877 173.572 46.7989 173.254 48.1681 173.426C51.0639 173.79 51.5765 176.408 53.4294 176.349C55.989 176.268 59.0589 171.144 58.1061 166.704C57.3288 163.081 53.9773 160.391 53.1371 160.858C52.3041 161.321 49.3054 159.28 48.1681 159.688C47.3915 159.968 43.7358 159.596 42.9069 159.981C42.0016 160.401 39.4092 163.016 39.1614 162.686C37.439 160.397 37.4757 159.597 36.4764 159.104C34.7057 158.23 32.7807 159.846 29.4614 161.442C22.6318 164.727 20.632 162.768 17.4774 165.534C15.8838 166.932 15.0293 169.603 13.3853 174.888C11.0861 182.279 9.93659 185.974 11.047 189.502C12.1793 193.101 13.8469 192.318 16.3082 197.394C19.0481 203.045 18.1037 206.33 20.6926 207.624C22.6935 208.625 25.909 207.988 27.1231 206.163C29.2017 203.038 23.8291 198.811 25.6616 193.887C26.7864 190.864 30.2564 188.572 32.3843 189.21C34.7904 189.932 34.9676 194.246 36.4764 194.179C37.7685 194.122 38.6656 190.913 38.8148 190.379Z" fill="black"/>
<path d="M22.1539 211.424C26.6543 206.378 44.9858 211.601 46.7064 219.608C47.4141 222.902 44.8015 224.293 45.5373 228.085C46.6134 233.631 52.7064 233.253 57.229 238.9C63.6497 246.916 57.035 254.751 64.244 268.129C65.7844 270.987 67.0828 273.397 69.7975 275.728C76.0271 281.079 81.8247 279.244 84.9968 284.205C87.3689 287.915 86.3942 292.487 86.1659 293.558C85.2298 297.95 82.6925 299.021 80.9047 302.619C77.9301 308.607 81.298 313.003 81.4893 320.157C81.7285 329.108 76.9719 341.515 67.4592 345.586C56.7721 350.16 43.8826 342.585 37.6454 335.064C33.9235 330.576 32.8432 326.436 31.2149 321.326C23.938 298.489 19.8268 300.554 14.2619 282.451C7.90024 261.756 6.64961 237.511 14.2619 229.839C15.2709 228.822 18.0477 226.471 19.8155 222.239C22.1944 216.544 20.1392 213.683 22.1538 211.424L22.1539 211.424Z" fill="black"/>
<path d="M22.1539 211.424C26.6543 206.378 44.9858 211.601 46.7064 219.608C47.4141 222.902 44.8015 224.293 45.5373 228.085C46.6134 233.631 52.7064 233.253 57.229 238.9C63.6497 246.916 57.035 254.751 64.244 268.129C65.7844 270.987 67.0828 273.397 69.7975 275.728C76.0271 281.079 81.8247 279.244 84.9968 284.205C87.3689 287.915 86.3942 292.487 86.1659 293.558C85.2298 297.95 82.6925 299.021 80.9047 302.619C77.9301 308.607 81.298 313.003 81.4893 320.157C81.7285 329.108 76.9719 341.515 67.4592 345.586C56.7721 350.16 43.8826 342.585 37.6454 335.064C33.9235 330.576 32.8432 326.436 31.2149 321.326C23.938 298.489 19.8268 300.554 14.2619 282.451C7.90024 261.756 6.64961 237.511 14.2619 229.839C15.2709 228.822 18.0477 226.471 19.8155 222.239C22.1944 216.544 20.1392 213.683 22.1538 211.424L22.1539 211.424Z" fill="black" fill-opacity="0.2"/>
<path d="M88.6533 328.891C92.1426 333.324 92.6834 338.718 89.8617 340.938C87.0399 343.159 81.9248 341.364 78.4349 336.929C77.0165 335.176 76.0385 333.109 75.5826 330.901L61.0356 311.93L68.5523 306.197L83.4638 324.7C85.5035 325.663 87.283 327.1 88.6533 328.891Z" fill="#936D6D"/>
<path d="M35.3773 230.655C36.0245 230.511 41.6881 229.337 46.1407 232.783C51.2556 236.741 51.0078 243.883 50.9209 246.388C50.7202 252.174 48.4527 253.118 47.1037 258.794C44.5799 269.412 49.3862 279.281 52.0416 284.733C52.9608 286.62 55.9137 292.395 61.7917 298.614C73.2238 310.709 83.4241 317.074 83.4241 317.074L72.4661 326.814C72.4661 326.814 55.0112 321.494 43.1838 310.835C31.0516 299.901 12.3944 261.216 8.52675 251.792C8.19367 250.981 12.9117 264.174 21.9202 244.847C23.975 240.438 27.7399 232.361 35.3773 230.655H35.3773Z" fill="black"/>
<path d="M315.838 221.581L302.754 215.383C308.12 222.872 312.744 234.569 315.22 243.876C319.411 235.206 326.168 224.598 332.856 218.262L319.028 221.819C327.549 180.059 359.598 150.08 396.298 150.08L396.818 148.571C358.483 148.571 324.538 178.135 315.838 221.581V221.581Z" fill="#3F3D56"/>
<path d="M376.057 285.21H293.389C289.883 285.21 287.03 282.357 287.03 278.851C287.03 275.344 289.883 272.492 293.389 272.492H376.057C379.563 272.492 382.416 275.344 382.416 278.851C382.416 282.357 379.563 285.21 376.057 285.21Z" fill="#310138"/>
<path d="M486.057 285.21H403.389C399.883 285.21 397.03 282.357 397.03 278.851C397.03 275.344 399.883 272.492 403.389 272.492H486.057C489.563 272.492 492.416 275.344 492.416 278.851C492.416 282.357 489.563 285.21 486.057 285.21Z" fill="#E6E6E6"/>
<path d="M437.118 112.217H356.761C354.735 112.217 353.087 110.569 353.087 108.543C353.087 106.517 354.735 104.87 356.761 104.87H437.118C439.144 104.87 440.792 106.517 440.792 108.543C440.792 110.569 439.144 112.217 437.118 112.217V112.217Z" fill="#3F3D56"/>
<path d="M480.239 151.416H313.641C311.615 151.416 309.966 149.767 309.966 147.741C309.966 145.716 311.615 144.068 313.641 144.068H480.239C482.264 144.068 483.912 145.716 483.912 147.741C483.912 149.767 482.264 151.416 480.239 151.416Z" fill="#3F3D56"/>
<path d="M36.1211 504.885C36.1211 505.545 36.6511 506.075 37.3112 506.075H559.601C560.261 506.075 560.791 505.545 560.791 504.885C560.791 504.225 560.261 503.695 559.601 503.695H37.3112C36.6511 503.695 36.1211 504.225 36.1211 504.885Z" fill="#3F3D56"/>
<path d="M164.369 222.797C164.227 222.797 164.086 222.792 163.944 222.783C155.575 222.245 126.939 218.193 109.844 188.635C108.435 186.201 108.712 183.107 110.534 180.936L142.194 143.215C143.489 141.672 145.489 140.783 147.514 140.808C148.914 140.841 152.229 141.195 152.873 143.75C156.676 158.846 172.736 176.597 192.05 178.95C194.008 179.188 195.579 180.934 196.254 183.621C196.78 185.713 196.294 187.87 194.919 189.538L169.557 220.336C168.268 221.9 166.378 222.797 164.369 222.797V222.797ZM147.393 142.325C145.845 142.325 144.341 143.018 143.357 144.19L111.697 181.912C110.284 183.595 110.068 185.991 111.158 187.874C127.876 216.781 155.863 220.742 164.042 221.267C165.712 221.379 167.316 220.668 168.385 219.37L193.747 188.572C194.812 187.28 195.189 185.611 194.782 183.991C194.383 182.406 193.408 180.644 191.866 180.456C171.914 178.026 155.326 159.703 151.4 144.12C151.082 142.859 149.168 142.366 147.483 142.326C147.453 142.325 147.423 142.325 147.393 142.325H147.393Z" fill="#3F3D56"/>
<path d="M129.03 189.876L151.855 166.603C153.415 165.012 150.971 162.564 149.409 164.157L126.583 187.43C125.023 189.021 127.467 191.469 129.03 189.876Z" fill="#E6E6E6"/>
<path d="M142.806 196.433C149.106 190.786 154.58 184.249 159.062 177.075C160.246 175.181 157.254 173.443 156.075 175.329C151.741 182.264 146.449 188.528 140.36 193.986C138.698 195.475 141.151 197.916 142.806 196.433H142.806V196.433Z" fill="#E6E6E6"/>
<path d="M155.222 204.284C160.958 197.931 165.84 190.84 169.684 183.191C170.681 181.207 167.698 179.453 166.697 181.445C162.983 188.835 158.319 195.698 152.776 201.838C151.287 203.487 153.727 205.941 155.222 204.284H155.222Z" fill="#E6E6E6"/>
<path d="M145.443 162.385C158.153 162.385 168.456 152.299 168.456 139.857C168.456 127.416 158.153 117.33 145.443 117.33C132.734 117.33 122.431 127.416 122.431 139.857C122.431 152.299 132.734 162.385 145.443 162.385Z" fill="#310138"/>
<path d="M157.417 150.544C153.878 141.842 150.339 133.14 146.8 124.438C146.311 123.237 144.78 123.194 144.303 124.438C140.806 133.561 138.52 143.081 137.422 152.787C137.235 154.44 139.826 154.427 140.011 152.787C140.441 148.989 141.08 145.219 141.899 141.489C144.815 141.642 147.756 141.315 150.57 140.536C152.02 144.101 153.47 147.667 154.92 151.232C155.54 152.755 158.046 152.089 157.417 150.544V150.544ZM142.486 138.929C143.358 135.359 144.404 131.831 145.617 128.36L149.586 138.118C147.262 138.728 144.884 139 142.486 138.929V138.929Z" fill="white"/>
</g>
<defs>
<clipPath id="clip0_302_148">
<rect width="596.912" height="505.575" fill="white" transform="translate(0 0.5)"/>
</clipPath>
</defs>
</svg>
