<svg id="visual" viewBox="0 0 900 675" width="900" height="675" xmlns="http://www.w3.org/2000/svg" xmlns:xlink="http://www.w3.org/1999/xlink" version="1.1"><path d="M0 136L50 136C100 136 200 136 300 179.8C400 223.7 500 311.3 600 337.2C700 363 800 327 850 309L900 291L900 0L850 0C800 0 700 0 600 0C500 0 400 0 300 0C200 0 100 0 50 0L0 0Z" fill="#00070e"></path><path d="M0 298L50 299.2C100 300.3 200 302.7 300 342C400 381.3 500 457.7 600 486.8C700 516 800 498 850 489L900 480L900 289L850 307C800 325 700 361 600 335.2C500 309.3 400 221.7 300 177.8C200 134 100 134 50 134L0 134Z" fill="#ff0066"></path><path d="M0 676L50 676C100 676 200 676 300 676C400 676 500 676 600 676C700 676 800 676 850 676L900 676L900 478L850 487C800 496 700 514 600 484.8C500 455.7 400 379.3 300 340C200 300.7 100 298.3 50 297.2L0 296Z" fill="#00070e"></path></svg>