<svg width="38" height="24" viewBox="0 0 38 24" fill="none" xmlns="http://www.w3.org/2000/svg">
<path d="M12.4567 19.6057L4.72388 11.5506L12.4567 3.49557C12.6404 3.30654 12.7863 3.08141 12.8858 2.83323C12.9853 2.58505 13.0366 2.31876 13.0366 2.04979C13.0366 1.78082 12.9853 1.51453 12.8858 1.26635C12.7863 1.01817 12.6404 0.793037 12.4567 0.604005C12.2753 0.412667 12.0592 0.260754 11.8209 0.157072C11.5826 0.0533892 11.327 0 11.0688 0C10.8106 0 10.5549 0.0533892 10.3167 0.157072C10.0784 0.260754 9.86232 0.412667 9.68085 0.604005L0.579854 10.0842C0.396043 10.2753 0.250214 10.5022 0.150714 10.7521C0.0512153 11.002 0 11.2698 0 11.5403C0 11.8108 0.0512153 12.0787 0.150714 12.3285C0.250214 12.5784 0.396043 12.8053 0.579854 12.9964L9.68085 22.4973C10.4541 23.3028 11.6835 23.3028 12.4567 22.4973C12.6404 22.3082 12.7863 22.0831 12.8858 21.8349C12.9853 21.5868 13.0366 21.3205 13.0366 21.0515C13.0366 20.7825 12.9853 20.5162 12.8858 20.2681C12.7863 20.0199 12.6404 19.7947 12.4567 19.6057ZM25.5431 19.6057L33.276 11.5506L25.5431 3.49557C25.3595 3.30654 25.2136 3.08141 25.1141 2.83323C25.0145 2.58505 24.9633 2.31876 24.9633 2.04979C24.9633 1.78082 25.0145 1.51453 25.1141 1.26635C25.2136 1.01817 25.3595 0.793037 25.5431 0.604005C25.7246 0.412667 25.9407 0.260754 26.179 0.157072C26.4172 0.0533892 26.6729 0 26.9311 0C27.1893 0 27.4449 0.0533892 27.6832 0.157072C27.9214 0.260754 28.1376 0.412667 28.319 0.604005L37.42 10.0842C38.1933 10.8897 38.1933 12.1909 37.42 12.9964L28.319 22.4973C28.1376 22.6886 27.9214 22.8405 27.6832 22.9442C27.4449 23.0479 27.1893 23.1013 26.9311 23.1013C26.6729 23.1013 26.4172 23.0479 26.179 22.9442C25.9407 22.8405 25.7246 22.6886 25.5431 22.4973C25.3595 22.3082 25.2136 22.0831 25.1141 21.8349C25.0145 21.5868 24.9633 21.3205 24.9633 21.0515C24.9633 20.7825 25.0145 20.5162 25.1141 20.2681C25.2136 20.0199 25.3595 19.7947 25.5431 19.6057Z" fill="url(#paint0_linear_1_12)"/>
<defs>
<linearGradient id="paint0_linear_1_12" x1="55" y1="3.5" x2="-6.88487" y2="13.6545" gradientUnits="userSpaceOnUse">
<stop stop-color="#660029"/>
<stop offset="0.594033" stop-color="#FF0066"/>
<stop offset="1" stop-color="#FF7CB1"/>
</linearGradient>
</defs>
</svg>
