<svg width="26" height="33" viewBox="0 0 26 33" fill="none" xmlns="http://www.w3.org/2000/svg">
<path d="M17.3735 0.3435L0.52992 15.4312C-0.510608 16.3741 0.0746885 18.1138 1.4729 18.2438L14.6258 19.512L6.74057 30.5026C6.38289 31.0066 6.43167 31.7057 6.87064 32.1446C7.35839 32.6324 8.12252 32.6487 8.62653 32.1772L25.4701 17.0895C26.5106 16.1465 25.9253 14.4069 24.5271 14.2768L11.3742 13.0087L19.2594 2.0181C19.6171 1.51409 19.5683 0.814989 19.1294 0.376017C18.8995 0.141272 18.5866 0.00629801 18.2581 0.000214862C17.9296 -0.00586829 17.6119 0.117427 17.3735 0.3435V0.3435Z" fill="url(#paint0_linear_1_10)"/>
<defs>
<linearGradient id="paint0_linear_1_10" x1="17" y1="-4" x2="9" y2="41.5" gradientUnits="userSpaceOnUse">
<stop stop-color="#660029"/>
<stop offset="0.5625" stop-color="#FF0066"/>
<stop offset="1" stop-color="#FF7CB1"/>
</linearGradient>
</defs>
</svg>
