<svg width="54" height="68" viewBox="0 0 54 68" fill="none" xmlns="http://www.w3.org/2000/svg">
<path d="M27.9997 9.20232C30.8089 4.34846 33.8523 3.75729 35.0228 4.06843M26.8908 9.20232C27.6301 5.04046 28.4309 4 28.739 4M12.8307 36.1429C11.0501 33.4309 10.0121 30.1723 10.0121 26.6673C10.0121 17.2269 17.542 9.57392 26.8307 9.57392C36.1193 9.57392 43.6492 17.2269 43.6492 26.6673C43.6492 30.0136 42.7031 33.1354 41.0678 35.7713M49.1938 31.6838L42.7251 36.5145L34.5931 31.6838L26.8908 36.5145L18.8834 31.6838L11.4907 36.5145L4.65237 31.6838M49.1938 31.6838C51.35 42.1504 50.3283 63.2384 27.4107 63.9816C4.49312 64.7248 2.55775 42.7697 4.65237 31.6838M49.1938 31.6838C51.35 42.1504 50.4461 63.2384 27.5285 63.9816C4.61092 64.7248 2.55775 42.7697 4.65237 31.6838M49.1938 31.6838C51.35 42.1504 50.5639 63.2384 27.6463 63.9816C4.72872 64.7248 2.55775 42.7697 4.65237 31.6838M49.1938 31.6838C51.35 42.1504 50.6817 63.2384 27.7641 63.9816C4.84652 64.7248 2.55775 42.7697 4.65237 31.6838M49.1938 31.6838C51.35 42.1504 50.2105 63.2384 27.2929 63.9816C4.37532 64.7248 2.55775 42.7697 4.65237 31.6838" stroke="#F2EEEA" stroke-width="7"/>
</svg>
