<svg width="28" height="28" viewBox="0 0 28 28" fill="none" xmlns="http://www.w3.org/2000/svg">
<path d="M24.8889 0H3.11111C1.4 0 0 1.4 0 3.11111V24.8889C0 26.6 1.4 28 3.11111 28H24.8889C26.6 28 28 26.6 28 24.8889V3.11111C28 1.4 26.6 0 24.8889 0ZM24.8889 24.8889H3.11111V3.11111H24.8889V24.8889ZM6.22222 10.8889H9.33333V21.7778H6.22222V10.8889ZM12.4444 6.22222H15.5556V21.7778H12.4444V6.22222ZM18.6667 15.5556H21.7778V21.7778H18.6667V15.5556Z" fill="url(#paint0_linear_1_14)"/>
<defs>
<linearGradient id="paint0_linear_1_14" x1="30" y1="-3.5" x2="-4.66667" y2="34.2222" gradientUnits="userSpaceOnUse">
<stop stop-color="#660029"/>
<stop offset="0.617626" stop-color="#FF0066"/>
<stop offset="1" stop-color="#FF7CB1"/>
</linearGradient>
</defs>
</svg>
